<svg xmlns="http://www.w3.org/2000/svg" xmlns:xlink="http://www.w3.org/1999/xlink" width="182" zoomAndPan="magnify" viewBox="0 0 136.5 68.249996" height="91" preserveAspectRatio="xMidYMid meet" version="1.0"><defs><g/><clipPath id="f21a676c0e"><path d="M 49.988281 10 L 59 10 L 59 16 L 49.988281 16 Z M 49.988281 10 " clip-rule="nonzero"/></clipPath><clipPath id="54f12a3561"><path d="M 79 5 L 85.597656 5 L 85.597656 13 L 79 13 Z M 79 5 " clip-rule="nonzero"/></clipPath><clipPath id="08089a7891"><path d="M 64 0.46875 L 70 0.46875 L 70 9 L 64 9 Z M 64 0.46875 " clip-rule="nonzero"/></clipPath><clipPath id="aefb7d36b6"><path d="M 56 10 L 75 10 L 75 36.820312 L 56 36.820312 Z M 56 10 " clip-rule="nonzero"/></clipPath></defs><g clip-path="url(#f21a676c0e)"><path fill="#80cc28" d="M 49.988281 12.296875 C 49.988281 12.296875 56.539062 8.488281 58.144531 13.433594 C 56.210938 12.8125 54.054688 12.933594 54.054688 12.933594 C 54.054688 12.933594 55.789062 13.394531 57.929688 14.484375 C 55.6875 17.042969 53.484375 14.945312 51.878906 13.445312 C 51.035156 12.652344 49.988281 12.296875 49.988281 12.296875 " fill-opacity="1" fill-rule="nonzero"/></g><g clip-path="url(#54f12a3561)"><path fill="#80cc28" d="M 85.597656 5.882812 C 85.597656 5.882812 78.035156 6.222656 79.339844 11.257812 C 80.636719 9.6875 82.519531 8.621094 82.519531 8.621094 C 82.519531 8.621094 81.304688 9.949219 80.089844 12.027344 C 83.355469 12.964844 84.078125 10.003906 84.621094 7.875 C 84.910156 6.75 85.597656 5.882812 85.597656 5.882812 " fill-opacity="1" fill-rule="nonzero"/></g><g clip-path="url(#08089a7891)"><path fill="#80cc28" d="M 65.75 0.46875 C 65.75 0.46875 62.597656 7.351562 67.554688 8.679688 C 67.007812 6.445312 66.847656 4.21875 66.847656 4.21875 C 66.847656 4.21875 67.910156 6.179688 68.652344 8.355469 C 72.109375 4.554688 65.75 0.46875 65.75 0.46875 " fill-opacity="1" fill-rule="nonzero"/></g><g clip-path="url(#aefb7d36b6)"><path fill="#80cc28" d="M 69.113281 12.820312 C 70.632812 12.765625 71.910156 14.09375 71.96875 15.78125 C 72.023438 17.46875 70.839844 18.875 69.320312 18.929688 C 67.800781 18.980469 66.523438 17.652344 66.46875 15.96875 C 66.410156 14.28125 67.597656 12.871094 69.113281 12.820312 Z M 62.917969 36.820312 C 72.25 24.175781 60.921875 13.957031 60.921875 13.957031 C 68.203125 17.003906 68.050781 23.414062 70.210938 23.113281 C 71.773438 22.894531 72.410156 17.503906 73.535156 13.382812 C 73.757812 12.570312 74.078125 11.859375 74.457031 11.246094 C 72.859375 10.519531 71.085938 10.113281 69.21875 10.113281 C 62.195312 10.113281 56.503906 15.824219 56.503906 22.863281 C 56.503906 27.875 59.386719 32.210938 63.578125 34.296875 C 63.453125 35 63.234375 36.007812 62.917969 36.820312 " fill-opacity="1" fill-rule="nonzero"/></g><path fill="#27963c" d="M 77.507812 13.199219 C 77.511719 12.234375 77.625 9.496094 78.667969 7.691406 C 72.070312 13.386719 79.761719 27.570312 66.210938 35.257812 C 67.175781 35.492188 68.183594 35.617188 69.21875 35.617188 C 76.238281 35.617188 81.929688 29.90625 81.929688 22.863281 C 81.929688 19 80.214844 15.535156 77.507812 13.199219 " fill-opacity="1" fill-rule="nonzero"/><g fill="#ffffff" fill-opacity="1"><g transform="translate(18.017772, 47.033146)"><g><path d="M 1.054688 0 L 6.503906 0 L 6.503906 -1.390625 L 2.527344 -1.390625 L 2.527344 -3.417969 L 6.230469 -3.417969 L 6.230469 -4.769531 L 2.527344 -4.769531 L 2.527344 -6.839844 L 6.503906 -6.839844 L 6.503906 -8.1875 L 1.054688 -8.1875 Z M 1.054688 0 "/></g></g></g><g fill="#ffffff" fill-opacity="1"><g transform="translate(25.613226, 47.033146)"><g><path d="M 3.394531 0.09375 C 4.960938 0.09375 6.242188 -0.839844 6.242188 -2.386719 C 6.242188 -5.105469 2.277344 -4.585938 2.277344 -6.125 C 2.277344 -6.648438 2.730469 -7 3.308594 -7 C 3.859375 -7 4.347656 -6.683594 4.628906 -6.125 L 5.855469 -6.875 C 5.292969 -7.871094 4.371094 -8.3125 3.363281 -8.3125 C 1.980469 -8.3125 0.804688 -7.5 0.804688 -6.050781 C 0.804688 -3.382812 4.769531 -3.953125 4.769531 -2.253906 C 4.769531 -1.675781 4.292969 -1.210938 3.417969 -1.210938 C 2.550781 -1.210938 1.824219 -1.664062 1.722656 -2.683594 L 0.261719 -2.3125 C 0.523438 -0.703125 1.949219 0.09375 3.394531 0.09375 Z M 3.394531 0.09375 "/></g></g></g><g fill="#ffffff" fill-opacity="1"><g transform="translate(32.582747, 47.033146)"><g><path d="M 1.054688 0 L 2.515625 0 L 2.515625 -3.394531 L 3.621094 -3.394531 C 5.292969 -3.394531 6.515625 -4.238281 6.515625 -5.765625 C 6.515625 -7.3125 5.292969 -8.1875 3.621094 -8.1875 L 1.054688 -8.1875 Z M 2.515625 -4.769531 L 2.515625 -6.816406 L 3.621094 -6.816406 C 4.621094 -6.816406 5.054688 -6.433594 5.054688 -5.765625 C 5.054688 -5.117188 4.628906 -4.769531 3.621094 -4.769531 Z M 2.515625 -4.769531 "/></g></g></g><g fill="#ffffff" fill-opacity="1"><g transform="translate(39.726138, 47.033146)"><g><path d="M 0.0703125 0 L 1.675781 0 L 2.3125 -1.777344 L 5.496094 -1.777344 L 6.125 0 L 7.714844 0 L 4.449219 -8.1875 L 3.351562 -8.1875 Z M 2.8125 -3.035156 L 3.90625 -6.027344 L 4.996094 -3.035156 Z M 2.8125 -3.035156 "/></g></g></g><g fill="#ffffff" fill-opacity="1"><g transform="translate(47.88957, 47.033146)"><g><path d="M 8.019531 -2.242188 L 6.660156 -2.800781 C 6.21875 -1.699219 5.496094 -1.28125 4.441406 -1.28125 C 2.683594 -1.28125 1.9375 -2.527344 1.9375 -4.15625 C 1.9375 -5.675781 2.683594 -6.921875 4.417969 -6.921875 C 5.484375 -6.921875 6.328125 -6.503906 6.636719 -5.425781 L 8.007812 -5.96875 C 7.347656 -7.5 6.050781 -8.324219 4.429688 -8.324219 C 1.734375 -8.324219 0.476562 -6.339844 0.476562 -4.097656 C 0.476562 -1.953125 1.628906 -0.0703125 4.070312 0.105469 L 3.414062 1.128906 L 3.820312 1.128906 C 4.398438 1.128906 4.792969 1.402344 4.792969 1.769531 C 4.792969 2.027344 4.601562 2.21875 4.328125 2.21875 C 4.148438 2.21875 4 2.097656 3.941406 1.949219 L 3.152344 2.277344 C 3.34375 2.71875 3.808594 3.023438 4.292969 3.023438 C 5.054688 3.023438 5.621094 2.457031 5.621094 1.722656 C 5.621094 1.101562 5.234375 0.679688 4.519531 0.578125 L 4.898438 0.09375 C 6.3125 -0.046875 7.4375 -0.859375 8.019531 -2.242188 Z M 8.019531 -2.242188 "/></g></g></g><g fill="#ffffff" fill-opacity="1"><g transform="translate(56.568819, 47.033146)"><g><path d="M 4.429688 0.117188 C 7.132812 0.117188 8.378906 -1.867188 8.378906 -4.097656 C 8.378906 -6.328125 7.132812 -8.3125 4.429688 -8.3125 C 1.722656 -8.3125 0.476562 -6.328125 0.476562 -4.097656 C 0.476562 -1.867188 1.722656 0.117188 4.429688 0.117188 Z M 4.429688 -1.1875 C 2.671875 -1.1875 2.027344 -2.550781 2.027344 -4.097656 C 2.027344 -5.640625 2.671875 -7 4.429688 -7 C 6.183594 -7 6.828125 -5.640625 6.828125 -4.097656 C 6.828125 -2.550781 6.183594 -1.1875 4.429688 -1.1875 Z M 4.429688 -1.1875 "/></g></g></g><g fill="#ffffff" fill-opacity="1"><g transform="translate(65.80445, 47.033146)"><g/></g></g><g fill="#ffffff" fill-opacity="1"><g transform="translate(69.035754, 47.033146)"><g><path d="M 1.054688 0.0117188 L 2.527344 0.0117188 L 2.527344 -3.5 L 3.511719 -3.5 L 5.527344 0.0117188 L 7.214844 0.0117188 L 4.9375 -3.644531 C 5.863281 -3.964844 6.539062 -4.746094 6.539062 -5.777344 C 6.539062 -7.3125 5.234375 -8.1875 3.703125 -8.1875 L 1.054688 -8.1875 Z M 2.539062 -4.699219 L 2.539062 -6.875 L 3.714844 -6.875 C 4.554688 -6.875 5.082031 -6.433594 5.082031 -5.753906 C 5.082031 -5.140625 4.621094 -4.734375 3.835938 -4.699219 Z M 2.539062 -4.699219 "/></g></g></g><g fill="#ffffff" fill-opacity="1"><g transform="translate(76.76451, 47.033146)"><g><path d="M 1.054688 0 L 6.503906 0 L 6.503906 -1.390625 L 2.527344 -1.390625 L 2.527344 -3.417969 L 6.230469 -3.417969 L 6.230469 -4.769531 L 2.527344 -4.769531 L 2.527344 -6.839844 L 6.503906 -6.839844 L 6.503906 -8.1875 L 1.054688 -8.1875 Z M 1.054688 0 "/></g></g></g><g fill="#ffffff" fill-opacity="1"><g transform="translate(84.359966, 47.033146)"><g><path d="M 1.054688 0 L 2.46875 0 L 2.46875 -5.742188 L 5.898438 0 L 7.371094 0 L 7.371094 -8.1875 L 5.957031 -8.1875 L 5.957031 -2.457031 L 2.515625 -8.1875 L 1.054688 -8.1875 Z M 1.054688 0 "/></g></g></g><g fill="#ffffff" fill-opacity="1"><g transform="translate(93.166719, 47.033146)"><g><path d="M 4.429688 0.117188 C 7.132812 0.117188 8.378906 -1.867188 8.378906 -4.097656 C 8.378906 -6.328125 7.132812 -8.3125 4.429688 -8.3125 C 1.722656 -8.3125 0.476562 -6.328125 0.476562 -4.097656 C 0.476562 -1.867188 1.722656 0.117188 4.429688 0.117188 Z M 4.429688 -1.1875 C 2.671875 -1.1875 2.027344 -2.550781 2.027344 -4.097656 C 2.027344 -5.640625 2.671875 -7 4.429688 -7 C 6.183594 -7 6.828125 -5.640625 6.828125 -4.097656 C 6.828125 -2.550781 6.183594 -1.1875 4.429688 -1.1875 Z M 4.429688 -1.1875 "/></g></g></g><g fill="#ffffff" fill-opacity="1"><g transform="translate(102.402354, 47.033146)"><g><path d="M 3.351562 0 L 4.449219 0 L 7.714844 -8.1875 L 6.101562 -8.1875 L 3.90625 -2.386719 L 1.699219 -8.1875 L 0.0703125 -8.1875 Z M 3.351562 0 "/></g></g></g><g fill="#ffffff" fill-opacity="1"><g transform="translate(110.565786, 47.033146)"><g><path d="M 1.054688 0 L 6.503906 0 L 6.503906 -1.390625 L 2.527344 -1.390625 L 2.527344 -3.417969 L 6.230469 -3.417969 L 6.230469 -4.769531 L 2.527344 -4.769531 L 2.527344 -6.839844 L 6.503906 -6.839844 L 6.503906 -8.1875 L 1.054688 -8.1875 Z M 1.054688 0 "/></g></g></g><g fill="#ffffff" fill-opacity="1"><g transform="translate(27.267686, 58.90271)"><g><path d="M 1.054688 0 L 2.527344 0 L 2.527344 -3.417969 L 6.351562 -3.417969 L 6.351562 -4.769531 L 2.527344 -4.769531 L 2.527344 -6.839844 L 6.863281 -6.839844 L 6.863281 -8.1875 L 1.054688 -8.1875 Z M 1.054688 0 "/></g></g></g><g fill="#ffffff" fill-opacity="1"><g transform="translate(34.805184, 58.90271)"><g><path d="M 1.054688 0 L 2.527344 0 L 2.527344 -8.1875 L 1.054688 -8.1875 Z M 1.054688 0 "/></g></g></g><g fill="#ffffff" fill-opacity="1"><g transform="translate(38.766744, 58.90271)"><g><path d="M 3.394531 0.09375 C 4.960938 0.09375 6.242188 -0.839844 6.242188 -2.386719 C 6.242188 -5.105469 2.277344 -4.585938 2.277344 -6.125 C 2.277344 -6.648438 2.730469 -7 3.308594 -7 C 3.859375 -7 4.347656 -6.683594 4.628906 -6.125 L 5.855469 -6.875 C 5.292969 -7.871094 4.371094 -8.3125 3.363281 -8.3125 C 1.980469 -8.3125 0.804688 -7.5 0.804688 -6.050781 C 0.804688 -3.382812 4.769531 -3.953125 4.769531 -2.253906 C 4.769531 -1.675781 4.292969 -1.210938 3.417969 -1.210938 C 2.550781 -1.210938 1.824219 -1.664062 1.722656 -2.683594 L 0.261719 -2.3125 C 0.523438 -0.703125 1.949219 0.09375 3.394531 0.09375 Z M 3.394531 0.09375 "/></g></g></g><g fill="#ffffff" fill-opacity="1"><g transform="translate(45.736263, 58.90271)"><g><path d="M 1.054688 0 L 2.527344 0 L 2.527344 -8.1875 L 1.054688 -8.1875 Z M 1.054688 0 "/></g></g></g><g fill="#ffffff" fill-opacity="1"><g transform="translate(49.697824, 58.90271)"><g><path d="M 4.429688 0.117188 C 7.132812 0.117188 8.378906 -1.867188 8.378906 -4.097656 C 8.378906 -6.328125 7.132812 -8.3125 4.429688 -8.3125 C 1.722656 -8.3125 0.476562 -6.328125 0.476562 -4.097656 C 0.476562 -1.867188 1.722656 0.117188 4.429688 0.117188 Z M 4.429688 -1.1875 C 2.671875 -1.1875 2.027344 -2.550781 2.027344 -4.097656 C 2.027344 -5.640625 2.671875 -7 4.429688 -7 C 6.183594 -7 6.828125 -5.640625 6.828125 -4.097656 C 6.828125 -2.550781 6.183594 -1.1875 4.429688 -1.1875 Z M 4.429688 -1.1875 "/></g></g></g><g fill="#ffffff" fill-opacity="1"><g transform="translate(58.933458, 58.90271)"><g><path d="M 2.683594 0 L 4.15625 0 L 4.15625 -6.875 L 6.71875 -6.875 L 6.71875 -8.1875 L 0.117188 -8.1875 L 0.117188 -6.875 L 2.683594 -6.875 Z M 2.683594 0 "/></g></g></g><g fill="#ffffff" fill-opacity="1"><g transform="translate(66.152194, 58.90271)"><g><path d="M 1.054688 0 L 6.503906 0 L 6.503906 -1.390625 L 2.527344 -1.390625 L 2.527344 -3.417969 L 6.230469 -3.417969 L 6.230469 -4.769531 L 2.527344 -4.769531 L 2.527344 -6.839844 L 6.503906 -6.839844 L 6.503906 -8.1875 L 1.054688 -8.1875 Z M 1.054688 0 "/></g></g></g><g fill="#ffffff" fill-opacity="1"><g transform="translate(73.747649, 58.90271)"><g><path d="M 1.054688 0.0117188 L 2.527344 0.0117188 L 2.527344 -3.5 L 3.511719 -3.5 L 5.527344 0.0117188 L 7.214844 0.0117188 L 4.9375 -3.644531 C 5.863281 -3.964844 6.539062 -4.746094 6.539062 -5.777344 C 6.539062 -7.3125 5.234375 -8.1875 3.703125 -8.1875 L 1.054688 -8.1875 Z M 2.539062 -4.699219 L 2.539062 -6.875 L 3.714844 -6.875 C 4.554688 -6.875 5.082031 -6.433594 5.082031 -5.753906 C 5.082031 -5.140625 4.621094 -4.734375 3.835938 -4.699219 Z M 2.539062 -4.699219 "/></g></g></g><g fill="#ffffff" fill-opacity="1"><g transform="translate(81.476403, 58.90271)"><g><path d="M 0.0703125 0 L 1.675781 0 L 2.3125 -1.777344 L 5.496094 -1.777344 L 6.125 0 L 7.714844 0 L 4.449219 -8.1875 L 3.351562 -8.1875 Z M 2.8125 -3.035156 L 3.90625 -6.027344 L 4.996094 -3.035156 Z M 2.8125 -3.035156 "/></g></g></g><g fill="#ffffff" fill-opacity="1"><g transform="translate(89.639835, 58.90271)"><g><path d="M 1.054688 0 L 2.515625 0 L 2.515625 -3.394531 L 3.621094 -3.394531 C 5.292969 -3.394531 6.515625 -4.238281 6.515625 -5.765625 C 6.515625 -7.3125 5.292969 -8.1875 3.621094 -8.1875 L 1.054688 -8.1875 Z M 2.515625 -4.769531 L 2.515625 -6.816406 L 3.621094 -6.816406 C 4.621094 -6.816406 5.054688 -6.433594 5.054688 -5.765625 C 5.054688 -5.117188 4.628906 -4.769531 3.621094 -4.769531 Z M 2.515625 -4.769531 "/></g></g></g><g fill="#ffffff" fill-opacity="1"><g transform="translate(96.783227, 58.90271)"><g><path d="M 1.054688 0 L 2.527344 0 L 2.527344 -8.1875 L 1.054688 -8.1875 Z M 1.054688 0 "/></g></g></g><g fill="#ffffff" fill-opacity="1"><g transform="translate(100.744788, 58.90271)"><g><path d="M 0.0703125 0 L 1.675781 0 L 2.3125 -1.777344 L 5.496094 -1.777344 L 6.125 0 L 7.714844 0 L 4.449219 -8.1875 L 3.351562 -8.1875 Z M 2.8125 -3.035156 L 3.90625 -6.027344 L 4.996094 -3.035156 Z M 2.8125 -3.035156 "/></g></g></g></svg>