<svg xmlns="http://www.w3.org/2000/svg" xmlns:xlink="http://www.w3.org/1999/xlink" width="220" zoomAndPan="magnify" viewBox="0 0 375 374.999991" height="230" preserveAspectRatio="xMidYMid meet" version="1.0"><defs><g/><clipPath id="4147ccfb9e"><path d="M 37.5 120.492188 L 93.75 120.492188 L 93.75 221.742188 L 37.5 221.742188 Z M 37.5 120.492188 " clip-rule="nonzero"/></clipPath></defs><g clip-path="url(#4147ccfb9e)"><path fill="#5ce1e6" d="M 53.921875 146.882812 C 55.503906 141.324219 60.605469 137.898438 65.308594 139.234375 C 70.007812 140.566406 72.539062 146.160156 70.957031 151.71875 C 69.375 157.28125 64.269531 160.703125 59.570312 159.371094 C 54.855469 158.035156 52.328125 152.441406 53.921875 146.882812 Z M 82.1875 175.472656 C 87.433594 165.6875 94.105469 146.269531 93.738281 134.417969 C 89.003906 148.875 73.863281 169.878906 57.230469 163.015625 C 46.367188 158.523438 42.902344 141.101562 56.917969 120.886719 C 56.917969 120.886719 24.242188 147.628906 43.648438 186.367188 C 57.34375 213.679688 83.289062 221.351562 83.289062 221.351562 C 83.289062 221.351562 67.480469 202.914062 82.1875 175.472656 Z M 82.1875 175.472656 " fill-opacity="1" fill-rule="nonzero"/></g><path fill="#ffffff" d="M 53.578125 168.511719 C 53.578125 167.644531 54.277344 166.941406 55.148438 166.941406 C 56.015625 166.941406 56.71875 167.644531 56.71875 168.511719 C 56.71875 169.378906 56.015625 170.078125 55.148438 170.078125 C 54.289062 170.078125 53.578125 169.378906 53.578125 168.511719 Z M 57.597656 177.484375 C 57.597656 176.148438 56.507812 175.058594 55.167969 175.058594 C 53.820312 175.058594 52.742188 176.148438 52.742188 177.484375 C 52.742188 178.820312 53.832031 179.910156 55.167969 179.910156 C 56.507812 179.910156 57.597656 178.820312 57.597656 177.484375 Z M 59.703125 186.28125 C 59.703125 184.734375 58.445312 183.488281 56.90625 183.488281 C 55.359375 183.488281 54.109375 184.746094 54.109375 186.28125 C 54.109375 187.8125 55.371094 189.070312 56.90625 189.070312 C 58.445312 189.082031 59.703125 187.824219 59.703125 186.28125 Z M 60.339844 191.828125 C 58.824219 191.828125 57.597656 193.050781 57.597656 194.5625 C 57.597656 196.074219 58.824219 197.300781 60.339844 197.300781 C 61.855469 197.300781 63.078125 196.074219 63.078125 194.5625 C 63.078125 193.0625 61.855469 191.828125 60.339844 191.828125 Z M 65.230469 199.835938 C 63.980469 199.835938 62.96875 200.847656 62.96875 202.09375 C 62.96875 203.335938 63.980469 204.347656 65.230469 204.347656 C 66.476562 204.347656 67.492188 203.335938 67.492188 202.09375 C 67.492188 200.847656 66.476562 199.835938 65.230469 199.835938 Z M 71.257812 207.507812 C 70.566406 207.507812 70.007812 208.0625 70.007812 208.753906 C 70.007812 209.441406 70.566406 209.996094 71.257812 209.996094 C 71.949219 209.996094 72.503906 209.441406 72.503906 208.753906 C 72.503906 208.0625 71.949219 207.507812 71.257812 207.507812 Z M 71.257812 207.507812 " fill-opacity="1" fill-rule="nonzero"/><g fill="#101922" fill-opacity="1"><g transform="translate(111.12437, 194.624958)"><g><path d="M 1.765625 0 L 1.765625 -18.203125 L 13.65625 -18.203125 L 13.65625 -15.515625 L 5.09375 -15.515625 L 5.09375 -10.53125 L 12.875 -10.53125 L 12.875 -7.9375 L 5.09375 -7.9375 L 5.09375 -2.671875 L 13.65625 -2.671875 L 13.65625 0 Z M 1.765625 0 "/></g></g></g><g fill="#101922" fill-opacity="1"><g transform="translate(126.147864, 194.624958)"><g><path d="M 7.015625 0.3125 C 5.867188 0.3125 4.863281 0.125 4 -0.25 C 3.132812 -0.625 2.441406 -1.140625 1.921875 -1.796875 C 1.398438 -2.453125 1.085938 -3.210938 0.984375 -4.078125 L 4.34375 -4.078125 C 4.445312 -3.578125 4.726562 -3.148438 5.1875 -2.796875 C 5.644531 -2.441406 6.238281 -2.265625 6.96875 -2.265625 C 7.695312 -2.265625 8.226562 -2.410156 8.5625 -2.703125 C 8.90625 -2.992188 9.078125 -3.332031 9.078125 -3.71875 C 9.078125 -4.269531 8.832031 -4.644531 8.34375 -4.84375 C 7.863281 -5.039062 7.1875 -5.238281 6.3125 -5.4375 C 5.757812 -5.550781 5.195312 -5.695312 4.625 -5.875 C 4.050781 -6.050781 3.523438 -6.269531 3.046875 -6.53125 C 2.578125 -6.800781 2.191406 -7.148438 1.890625 -7.578125 C 1.597656 -8.003906 1.453125 -8.53125 1.453125 -9.15625 C 1.453125 -10.300781 1.90625 -11.257812 2.8125 -12.03125 C 3.726562 -12.8125 5.007812 -13.203125 6.65625 -13.203125 C 8.175781 -13.203125 9.390625 -12.847656 10.296875 -12.140625 C 11.210938 -11.429688 11.757812 -10.453125 11.9375 -9.203125 L 8.78125 -9.203125 C 8.59375 -10.160156 7.875 -10.640625 6.625 -10.640625 C 6 -10.640625 5.519531 -10.515625 5.1875 -10.265625 C 4.851562 -10.023438 4.6875 -9.722656 4.6875 -9.359375 C 4.6875 -8.972656 4.9375 -8.664062 5.4375 -8.4375 C 5.9375 -8.21875 6.601562 -8.015625 7.4375 -7.828125 C 8.332031 -7.617188 9.15625 -7.390625 9.90625 -7.140625 C 10.664062 -6.890625 11.269531 -6.515625 11.71875 -6.015625 C 12.175781 -5.523438 12.40625 -4.820312 12.40625 -3.90625 C 12.414062 -3.101562 12.203125 -2.378906 11.765625 -1.734375 C 11.335938 -1.097656 10.71875 -0.597656 9.90625 -0.234375 C 9.09375 0.128906 8.128906 0.3125 7.015625 0.3125 Z M 7.015625 0.3125 "/></g></g></g><g fill="#101922" fill-opacity="1"><g transform="translate(139.793776, 194.624958)"><g><path d="M 1.6875 5.71875 L 1.6875 -12.890625 L 4.65625 -12.890625 L 5.015625 -11.046875 C 5.429688 -11.617188 5.984375 -12.117188 6.671875 -12.546875 C 7.359375 -12.984375 8.242188 -13.203125 9.328125 -13.203125 C 10.546875 -13.203125 11.628906 -12.90625 12.578125 -12.3125 C 13.535156 -11.726562 14.289062 -10.925781 14.84375 -9.90625 C 15.394531 -8.882812 15.671875 -7.722656 15.671875 -6.421875 C 15.671875 -5.117188 15.394531 -3.960938 14.84375 -2.953125 C 14.289062 -1.941406 13.535156 -1.144531 12.578125 -0.5625 C 11.628906 0.0195312 10.546875 0.3125 9.328125 0.3125 C 8.359375 0.3125 7.507812 0.128906 6.78125 -0.234375 C 6.050781 -0.597656 5.460938 -1.109375 5.015625 -1.765625 L 5.015625 5.71875 Z M 8.625 -2.59375 C 9.6875 -2.59375 10.5625 -2.945312 11.25 -3.65625 C 11.945312 -4.375 12.296875 -5.296875 12.296875 -6.421875 C 12.296875 -7.546875 11.945312 -8.472656 11.25 -9.203125 C 10.5625 -9.929688 9.6875 -10.296875 8.625 -10.296875 C 7.550781 -10.296875 6.671875 -9.9375 5.984375 -9.21875 C 5.304688 -8.5 4.96875 -7.578125 4.96875 -6.453125 C 4.96875 -5.328125 5.304688 -4.398438 5.984375 -3.671875 C 6.671875 -2.953125 7.550781 -2.59375 8.625 -2.59375 Z M 8.625 -2.59375 "/></g></g></g><g fill="#101922" fill-opacity="1"><g transform="translate(156.7407, 194.624958)"><g><path d="M 6.140625 0.3125 C 5.023438 0.3125 4.113281 0.132812 3.40625 -0.21875 C 2.695312 -0.570312 2.164062 -1.039062 1.8125 -1.625 C 1.46875 -2.21875 1.296875 -2.875 1.296875 -3.59375 C 1.296875 -4.78125 1.765625 -5.75 2.703125 -6.5 C 3.640625 -7.25 5.046875 -7.625 6.921875 -7.625 L 10.1875 -7.625 L 10.1875 -7.9375 C 10.1875 -8.8125 9.9375 -9.457031 9.4375 -9.875 C 8.9375 -10.289062 8.3125 -10.5 7.5625 -10.5 C 6.882812 -10.5 6.296875 -10.335938 5.796875 -10.015625 C 5.296875 -9.703125 4.984375 -9.234375 4.859375 -8.609375 L 1.609375 -8.609375 C 1.691406 -9.546875 2.003906 -10.359375 2.546875 -11.046875 C 3.097656 -11.742188 3.804688 -12.273438 4.671875 -12.640625 C 5.546875 -13.015625 6.519531 -13.203125 7.59375 -13.203125 C 9.425781 -13.203125 10.867188 -12.742188 11.921875 -11.828125 C 12.984375 -10.910156 13.515625 -9.613281 13.515625 -7.9375 L 13.515625 0 L 10.6875 0 L 10.375 -2.078125 C 9.988281 -1.390625 9.453125 -0.816406 8.765625 -0.359375 C 8.085938 0.0859375 7.210938 0.3125 6.140625 0.3125 Z M 6.890625 -2.28125 C 7.835938 -2.28125 8.578125 -2.59375 9.109375 -3.21875 C 9.640625 -3.84375 9.972656 -4.613281 10.109375 -5.53125 L 7.28125 -5.53125 C 6.394531 -5.53125 5.757812 -5.367188 5.375 -5.046875 C 5 -4.734375 4.8125 -4.34375 4.8125 -3.875 C 4.8125 -3.375 5 -2.984375 5.375 -2.703125 C 5.757812 -2.421875 6.265625 -2.28125 6.890625 -2.28125 Z M 6.890625 -2.28125 "/></g></g></g><g fill="#101922" fill-opacity="1"><g transform="translate(171.738205, 194.624958)"><g><path d="M 8.015625 0.3125 C 6.691406 0.3125 5.523438 0.0234375 4.515625 -0.546875 C 3.515625 -1.117188 2.722656 -1.914062 2.140625 -2.9375 C 1.566406 -3.957031 1.28125 -5.128906 1.28125 -6.453125 C 1.28125 -7.765625 1.566406 -8.929688 2.140625 -9.953125 C 2.722656 -10.972656 3.515625 -11.769531 4.515625 -12.34375 C 5.523438 -12.914062 6.691406 -13.203125 8.015625 -13.203125 C 9.660156 -13.203125 11.046875 -12.773438 12.171875 -11.921875 C 13.296875 -11.066406 14.015625 -9.882812 14.328125 -8.375 L 10.8125 -8.375 C 10.644531 -9 10.300781 -9.488281 9.78125 -9.84375 C 9.269531 -10.195312 8.671875 -10.375 7.984375 -10.375 C 7.066406 -10.375 6.285156 -10.023438 5.640625 -9.328125 C 5.003906 -8.640625 4.6875 -7.679688 4.6875 -6.453125 C 4.6875 -5.222656 5.003906 -4.257812 5.640625 -3.5625 C 6.285156 -2.863281 7.066406 -2.515625 7.984375 -2.515625 C 8.671875 -2.515625 9.269531 -2.6875 9.78125 -3.03125 C 10.300781 -3.382812 10.644531 -3.882812 10.8125 -4.53125 L 14.328125 -4.53125 C 14.015625 -3.070312 13.296875 -1.898438 12.171875 -1.015625 C 11.046875 -0.128906 9.660156 0.3125 8.015625 0.3125 Z M 5.671875 6.921875 L 5.671875 4.984375 L 8.578125 4.984375 C 9.492188 4.984375 9.953125 4.675781 9.953125 4.0625 C 9.953125 3.445312 9.492188 3.140625 8.578125 3.140625 L 6.984375 3.140625 L 6.984375 -0.109375 L 9.078125 -0.109375 L 9.078125 1.375 C 9.660156 1.363281 10.207031 1.453125 10.71875 1.640625 C 11.226562 1.828125 11.644531 2.125 11.96875 2.53125 C 12.289062 2.9375 12.453125 3.460938 12.453125 4.109375 C 12.453125 5.046875 12.113281 5.75 11.4375 6.21875 C 10.757812 6.6875 9.972656 6.921875 9.078125 6.921875 Z M 5.671875 6.921875 "/></g></g></g><g fill="#101922" fill-opacity="1"><g transform="translate(187.333536, 194.624958)"><g><path d="M 7.875 0.3125 C 6.625 0.3125 5.5 0.0234375 4.5 -0.546875 C 3.507812 -1.117188 2.722656 -1.910156 2.140625 -2.921875 C 1.566406 -3.941406 1.28125 -5.117188 1.28125 -6.453125 C 1.28125 -7.785156 1.570312 -8.957031 2.15625 -9.96875 C 2.75 -10.976562 3.539062 -11.769531 4.53125 -12.34375 C 5.53125 -12.914062 6.65625 -13.203125 7.90625 -13.203125 C 9.132812 -13.203125 10.242188 -12.914062 11.234375 -12.34375 C 12.234375 -11.769531 13.023438 -10.976562 13.609375 -9.96875 C 14.191406 -8.957031 14.484375 -7.785156 14.484375 -6.453125 C 14.484375 -5.117188 14.191406 -3.941406 13.609375 -2.921875 C 13.023438 -1.910156 12.226562 -1.117188 11.21875 -0.546875 C 10.21875 0.0234375 9.101562 0.3125 7.875 0.3125 Z M 7.875 -2.578125 C 8.738281 -2.578125 9.492188 -2.898438 10.140625 -3.546875 C 10.785156 -4.203125 11.109375 -5.171875 11.109375 -6.453125 C 11.109375 -7.734375 10.785156 -8.695312 10.140625 -9.34375 C 9.492188 -10 8.75 -10.328125 7.90625 -10.328125 C 7.019531 -10.328125 6.257812 -10 5.625 -9.34375 C 5 -8.695312 4.6875 -7.734375 4.6875 -6.453125 C 4.6875 -5.171875 5 -4.203125 5.625 -3.546875 C 6.257812 -2.898438 7.007812 -2.578125 7.875 -2.578125 Z M 7.875 -2.578125 "/></g></g></g><g fill="#101922" fill-opacity="1"><g transform="translate(203.084817, 194.624958)"><g/></g></g><g fill="#101922" fill-opacity="1"><g transform="translate(209.270966, 194.624958)"><g><path d="M 1.765625 0 L 1.765625 -18.203125 L 8.453125 -18.203125 C 9.910156 -18.203125 11.109375 -17.953125 12.046875 -17.453125 C 12.992188 -16.960938 13.703125 -16.296875 14.171875 -15.453125 C 14.640625 -14.617188 14.875 -13.6875 14.875 -12.65625 C 14.875 -11.550781 14.582031 -10.535156 14 -9.609375 C 13.414062 -8.691406 12.507812 -8.03125 11.28125 -7.625 L 15.046875 0 L 11.234375 0 L 7.859375 -7.171875 L 5.09375 -7.171875 L 5.09375 0 Z M 5.09375 -9.625 L 8.234375 -9.625 C 9.347656 -9.625 10.164062 -9.890625 10.6875 -10.421875 C 11.207031 -10.960938 11.46875 -11.675781 11.46875 -12.5625 C 11.46875 -13.425781 11.210938 -14.117188 10.703125 -14.640625 C 10.191406 -15.160156 9.363281 -15.421875 8.21875 -15.421875 L 5.09375 -15.421875 Z M 5.09375 -9.625 "/></g></g></g><g fill="#101922" fill-opacity="1"><g transform="translate(225.464115, 194.624958)"><g><path d="M 7.953125 0.3125 C 6.648438 0.3125 5.492188 0.0351562 4.484375 -0.515625 C 3.484375 -1.078125 2.695312 -1.859375 2.125 -2.859375 C 1.5625 -3.867188 1.28125 -5.03125 1.28125 -6.34375 C 1.28125 -7.675781 1.5625 -8.863281 2.125 -9.90625 C 2.6875 -10.945312 3.460938 -11.753906 4.453125 -12.328125 C 5.453125 -12.910156 6.628906 -13.203125 7.984375 -13.203125 C 9.242188 -13.203125 10.359375 -12.925781 11.328125 -12.375 C 12.304688 -11.820312 13.066406 -11.0625 13.609375 -10.09375 C 14.160156 -9.132812 14.4375 -8.066406 14.4375 -6.890625 C 14.4375 -6.703125 14.429688 -6.503906 14.421875 -6.296875 C 14.410156 -6.085938 14.394531 -5.867188 14.375 -5.640625 L 4.578125 -5.640625 C 4.648438 -4.640625 5 -3.851562 5.625 -3.28125 C 6.257812 -2.707031 7.03125 -2.421875 7.9375 -2.421875 C 8.601562 -2.421875 9.164062 -2.570312 9.625 -2.875 C 10.09375 -3.175781 10.4375 -3.570312 10.65625 -4.0625 L 14.046875 -4.0625 C 13.796875 -3.238281 13.390625 -2.492188 12.828125 -1.828125 C 12.265625 -1.160156 11.570312 -0.632812 10.75 -0.25 C 9.925781 0.125 8.992188 0.3125 7.953125 0.3125 Z M 7.984375 -10.5 C 7.171875 -10.5 6.453125 -10.269531 5.828125 -9.8125 C 5.203125 -9.351562 4.800781 -8.65625 4.625 -7.71875 L 11.046875 -7.71875 C 10.992188 -8.570312 10.679688 -9.25 10.109375 -9.75 C 9.535156 -10.25 8.828125 -10.5 7.984375 -10.5 Z M 7.984375 -10.5 "/></g></g></g><g fill="#101922" fill-opacity="1"><g transform="translate(241.007457, 194.624958)"><g><path d="M 1.6875 0 L 1.6875 -12.890625 L 4.625 -12.890625 L 4.890625 -10.71875 C 5.285156 -11.476562 5.859375 -12.082031 6.609375 -12.53125 C 7.367188 -12.976562 8.257812 -13.203125 9.28125 -13.203125 C 10.875 -13.203125 12.113281 -12.695312 13 -11.6875 C 13.882812 -10.6875 14.328125 -9.21875 14.328125 -7.28125 L 14.328125 0 L 11 0 L 11 -6.96875 C 11 -8.070312 10.769531 -8.921875 10.3125 -9.515625 C 9.863281 -10.109375 9.164062 -10.40625 8.21875 -10.40625 C 7.28125 -10.40625 6.507812 -10.070312 5.90625 -9.40625 C 5.3125 -8.75 5.015625 -7.832031 5.015625 -6.65625 L 5.015625 0 Z M 1.6875 0 "/></g></g></g><g fill="#101922" fill-opacity="1"><g transform="translate(256.810728, 194.624958)"><g><path d="M 7.875 0.3125 C 6.625 0.3125 5.5 0.0234375 4.5 -0.546875 C 3.507812 -1.117188 2.722656 -1.910156 2.140625 -2.921875 C 1.566406 -3.941406 1.28125 -5.117188 1.28125 -6.453125 C 1.28125 -7.785156 1.570312 -8.957031 2.15625 -9.96875 C 2.75 -10.976562 3.539062 -11.769531 4.53125 -12.34375 C 5.53125 -12.914062 6.65625 -13.203125 7.90625 -13.203125 C 9.132812 -13.203125 10.242188 -12.914062 11.234375 -12.34375 C 12.234375 -11.769531 13.023438 -10.976562 13.609375 -9.96875 C 14.191406 -8.957031 14.484375 -7.785156 14.484375 -6.453125 C 14.484375 -5.117188 14.191406 -3.941406 13.609375 -2.921875 C 13.023438 -1.910156 12.226562 -1.117188 11.21875 -0.546875 C 10.21875 0.0234375 9.101562 0.3125 7.875 0.3125 Z M 7.875 -2.578125 C 8.738281 -2.578125 9.492188 -2.898438 10.140625 -3.546875 C 10.785156 -4.203125 11.109375 -5.171875 11.109375 -6.453125 C 11.109375 -7.734375 10.785156 -8.695312 10.140625 -9.34375 C 9.492188 -10 8.75 -10.328125 7.90625 -10.328125 C 7.019531 -10.328125 6.257812 -10 5.625 -9.34375 C 5 -8.695312 4.6875 -7.734375 4.6875 -6.453125 C 4.6875 -5.171875 5 -4.203125 5.625 -3.546875 C 6.257812 -2.898438 7.007812 -2.578125 7.875 -2.578125 Z M 7.875 -2.578125 "/></g></g></g><g fill="#101922" fill-opacity="1"><g transform="translate(272.562009, 194.624958)"><g><path d="M 5.171875 0 L 0.4375 -12.890625 L 3.921875 -12.890625 L 7.203125 -3.140625 L 10.484375 -12.890625 L 13.96875 -12.890625 L 9.203125 0 Z M 5.171875 0 "/></g></g></g><g fill="#101922" fill-opacity="1"><g transform="translate(286.935707, 194.624958)"><g><path d="M 7.953125 0.3125 C 6.648438 0.3125 5.492188 0.0351562 4.484375 -0.515625 C 3.484375 -1.078125 2.695312 -1.859375 2.125 -2.859375 C 1.5625 -3.867188 1.28125 -5.03125 1.28125 -6.34375 C 1.28125 -7.675781 1.5625 -8.863281 2.125 -9.90625 C 2.6875 -10.945312 3.460938 -11.753906 4.453125 -12.328125 C 5.453125 -12.910156 6.628906 -13.203125 7.984375 -13.203125 C 9.242188 -13.203125 10.359375 -12.925781 11.328125 -12.375 C 12.304688 -11.820312 13.066406 -11.0625 13.609375 -10.09375 C 14.160156 -9.132812 14.4375 -8.066406 14.4375 -6.890625 C 14.4375 -6.703125 14.429688 -6.503906 14.421875 -6.296875 C 14.410156 -6.085938 14.394531 -5.867188 14.375 -5.640625 L 4.578125 -5.640625 C 4.648438 -4.640625 5 -3.851562 5.625 -3.28125 C 6.257812 -2.707031 7.03125 -2.421875 7.9375 -2.421875 C 8.601562 -2.421875 9.164062 -2.570312 9.625 -2.875 C 10.09375 -3.175781 10.4375 -3.570312 10.65625 -4.0625 L 14.046875 -4.0625 C 13.796875 -3.238281 13.390625 -2.492188 12.828125 -1.828125 C 12.265625 -1.160156 11.570312 -0.632812 10.75 -0.25 C 9.925781 0.125 8.992188 0.3125 7.953125 0.3125 Z M 7.984375 -10.5 C 7.171875 -10.5 6.453125 -10.269531 5.828125 -9.8125 C 5.203125 -9.351562 4.800781 -8.65625 4.625 -7.71875 L 11.046875 -7.71875 C 10.992188 -8.570312 10.679688 -9.25 10.109375 -9.75 C 9.535156 -10.25 8.828125 -10.5 7.984375 -10.5 Z M 7.984375 -10.5 "/></g></g></g></svg>