<svg xmlns="http://www.w3.org/2000/svg" xmlns:xlink="http://www.w3.org/1999/xlink" width="393" zoomAndPan="magnify" viewBox="0 0 294.75 254.250006" height="339" preserveAspectRatio="xMidYMid meet" version="1.0"><defs><g/><clipPath id="f8dd8bb52f"><path d="M 53.21875 118 L 96 118 L 96 144 L 53.21875 144 Z M 53.21875 118 " clip-rule="nonzero"/></clipPath><clipPath id="ef6f95974e"><path d="M 204 92 L 238.082031 92 L 238.082031 126 L 204 126 Z M 204 92 " clip-rule="nonzero"/></clipPath><clipPath id="c801acb663"><path d="M 129 64.75 L 156 64.75 L 156 108 L 129 108 Z M 129 64.75 " clip-rule="nonzero"/></clipPath><clipPath id="b251834df2"><path d="M 87 114 L 181 114 L 181 253.355469 L 87 253.355469 Z M 87 114 " clip-rule="nonzero"/></clipPath></defs><g clip-path="url(#f8dd8bb52f)"><path fill="#80cc28" d="M 53.226562 126.117188 C 53.226562 126.117188 87.230469 106.359375 95.578125 132.007812 C 85.535156 128.800781 74.328125 129.421875 74.328125 129.421875 C 74.328125 129.421875 83.335938 131.820312 94.453125 137.480469 C 82.808594 150.746094 71.375 139.851562 63.046875 132.070312 C 58.65625 127.972656 53.226562 126.117188 53.226562 126.117188 " fill-opacity="1" fill-rule="nonzero"/></g><g clip-path="url(#ef6f95974e)"><path fill="#80cc28" d="M 238.089844 92.847656 C 238.089844 92.847656 198.828125 94.613281 205.609375 120.71875 C 212.339844 112.585938 222.105469 107.046875 222.105469 107.046875 C 222.105469 107.046875 215.8125 113.9375 209.503906 124.71875 C 226.449219 129.585938 230.207031 114.230469 233.03125 103.175781 C 234.519531 97.347656 238.089844 92.847656 238.089844 92.847656 " fill-opacity="1" fill-rule="nonzero"/></g><g clip-path="url(#c801acb663)"><path fill="#80cc28" d="M 135.0625 64.753906 C 135.0625 64.753906 118.691406 100.457031 144.425781 107.351562 C 141.589844 95.761719 140.75 84.210938 140.75 84.210938 C 140.75 84.210938 146.261719 94.386719 150.113281 105.679688 C 168.066406 85.953125 135.0625 64.753906 135.0625 64.753906 " fill-opacity="1" fill-rule="nonzero"/></g><g clip-path="url(#b251834df2)"><path fill="#80cc28" d="M 152.519531 128.828125 C 160.402344 128.5625 167.03125 135.441406 167.328125 144.191406 C 167.625 152.945312 161.472656 160.257812 153.589844 160.527344 C 145.707031 160.792969 139.074219 153.914062 138.78125 145.160156 C 138.484375 136.410156 144.632812 129.097656 152.519531 128.828125 Z M 120.355469 253.351562 C 168.804688 187.761719 109.988281 134.734375 109.988281 134.734375 C 147.78125 150.542969 146.988281 183.796875 158.207031 182.242188 C 166.324219 181.113281 169.625 153.125 175.464844 131.753906 C 176.617188 127.535156 178.292969 123.855469 180.25 120.660156 C 171.957031 116.894531 162.75 114.796875 153.054688 114.796875 C 116.605469 114.796875 87.058594 144.414062 87.058594 180.953125 C 87.058594 206.949219 102.015625 229.441406 123.777344 240.257812 C 123.117188 243.90625 121.992188 249.140625 120.355469 253.351562 " fill-opacity="1" fill-rule="nonzero"/></g><path fill="#27963c" d="M 196.085938 130.792969 C 196.117188 125.796875 196.707031 111.589844 202.109375 102.21875 C 167.863281 131.773438 207.785156 205.355469 137.449219 245.242188 C 142.453125 246.457031 147.679688 247.105469 153.054688 247.105469 C 189.503906 247.105469 219.050781 217.488281 219.050781 180.953125 C 219.050781 160.898438 210.148438 142.925781 196.085938 130.792969 " fill-opacity="1" fill-rule="nonzero"/><g fill="#000000" fill-opacity="1"><g transform="translate(35.016669, 140.692918)"><g><path d="M -17.671875 -16.78125 C -16.929688 -16.65625 -16.179688 -16.515625 -15.421875 -16.359375 C -14.671875 -16.210938 -13.921875 -16.039062 -13.171875 -15.84375 L -13.28125 -15.109375 L -16.515625 -14.390625 L -17.34375 -8.28125 L -9.9375 -7.265625 L -9.3125 -11.828125 L -11.234375 -13.203125 L -11.140625 -13.90625 C -9.273438 -13.769531 -7.390625 -13.515625 -5.484375 -13.140625 L -5.578125 -12.4375 L -7.84375 -11.625 L -8.46875 -7.0625 L -0.65625 -6 L 0.21875 -12.453125 L -2.953125 -14.265625 L -2.859375 -14.953125 C -2.054688 -14.984375 -1.25 -14.972656 -0.4375 -14.921875 C 0.375 -14.867188 1.1875 -14.765625 2 -14.609375 L 0.109375 -0.8125 L -0.703125 -0.921875 C -0.898438 -1.617188 -1.019531 -2.414062 -1.0625 -3.3125 L -17.671875 -5.59375 C -17.796875 -5.21875 -17.941406 -4.84375 -18.109375 -4.46875 C -18.285156 -4.101562 -18.476562 -3.742188 -18.6875 -3.390625 L -19.484375 -3.5 Z M -17.671875 -16.78125 "/></g></g></g><g fill="#000000" fill-opacity="1"><g transform="translate(39.69566, 115.075397)"><g><path d="M -0.328125 -4.640625 C -0.0234375 -4.773438 0.257812 -4.984375 0.53125 -5.265625 C 0.8125 -5.546875 1.082031 -6.019531 1.34375 -6.6875 C 1.550781 -7.238281 1.671875 -7.789062 1.703125 -8.34375 C 1.742188 -8.90625 1.6875 -9.421875 1.53125 -9.890625 C 1.375 -10.367188 1.125 -10.789062 0.78125 -11.15625 C 0.445312 -11.519531 0.0195312 -11.800781 -0.5 -12 C -1.207031 -12.257812 -1.878906 -12.265625 -2.515625 -12.015625 C -3.148438 -11.773438 -3.773438 -11.398438 -4.390625 -10.890625 C -5.003906 -10.390625 -5.628906 -9.828125 -6.265625 -9.203125 C -6.910156 -8.585938 -7.597656 -8.046875 -8.328125 -7.578125 C -9.054688 -7.117188 -9.835938 -6.800781 -10.671875 -6.625 C -11.515625 -6.445312 -12.453125 -6.550781 -13.484375 -6.9375 C -14.222656 -7.21875 -14.832031 -7.601562 -15.3125 -8.09375 C -15.800781 -8.582031 -16.15625 -9.144531 -16.375 -9.78125 C -16.59375 -10.414062 -16.6875 -11.109375 -16.65625 -11.859375 C -16.625 -12.617188 -16.453125 -13.410156 -16.140625 -14.234375 C -15.734375 -15.304688 -15.273438 -16.253906 -14.765625 -17.078125 C -14.265625 -17.910156 -13.785156 -18.535156 -13.328125 -18.953125 C -13.035156 -18.835938 -12.703125 -18.679688 -12.328125 -18.484375 C -11.953125 -18.296875 -11.5625 -18.085938 -11.15625 -17.859375 C -10.75 -17.640625 -10.363281 -17.421875 -10 -17.203125 C -9.632812 -16.984375 -9.316406 -16.785156 -9.046875 -16.609375 L -9.296875 -15.921875 L -13.328125 -16.21875 C -13.578125 -15.957031 -13.832031 -15.597656 -14.09375 -15.140625 C -14.351562 -14.679688 -14.585938 -14.179688 -14.796875 -13.640625 C -15.128906 -12.742188 -15.144531 -11.925781 -14.84375 -11.1875 C -14.550781 -10.445312 -13.957031 -9.910156 -13.0625 -9.578125 C -12.332031 -9.296875 -11.640625 -9.273438 -10.984375 -9.515625 C -10.335938 -9.753906 -9.695312 -10.128906 -9.0625 -10.640625 C -8.425781 -11.148438 -7.785156 -11.710938 -7.140625 -12.328125 C -6.492188 -12.941406 -5.804688 -13.484375 -5.078125 -13.953125 C -4.359375 -14.429688 -3.59375 -14.757812 -2.78125 -14.9375 C -1.96875 -15.125 -1.070312 -15.035156 -0.09375 -14.671875 C 0.695312 -14.367188 1.363281 -13.945312 1.90625 -13.40625 C 2.445312 -12.875 2.84375 -12.242188 3.09375 -11.515625 C 3.34375 -10.796875 3.441406 -9.992188 3.390625 -9.109375 C 3.347656 -8.222656 3.132812 -7.28125 2.75 -6.28125 C 2.332031 -5.164062 1.820312 -4.21875 1.21875 -3.4375 C 0.613281 -2.664062 0.09375 -2.144531 -0.34375 -1.875 C -0.632812 -2.007812 -0.984375 -2.175781 -1.390625 -2.375 C -1.796875 -2.582031 -2.210938 -2.800781 -2.640625 -3.03125 C -3.066406 -3.269531 -3.476562 -3.503906 -3.875 -3.734375 C -4.269531 -3.960938 -4.609375 -4.164062 -4.890625 -4.34375 L -4.625 -5.03125 Z M -0.328125 -4.640625 "/></g></g></g><g fill="#000000" fill-opacity="1"><g transform="translate(49.378657, 92.305319)"><g><path d="M 2 -5.6875 C 2.332031 -6.082031 2.671875 -6.429688 3.015625 -6.734375 C 3.367188 -7.046875 3.726562 -7.328125 4.09375 -7.578125 L 4.765625 -7.125 L 0.453125 -0.671875 L -0.21875 -1.125 C -0.175781 -1.550781 -0.0820312 -1.953125 0.0625 -2.328125 C 0.207031 -2.710938 0.351562 -3.082031 0.5 -3.4375 L -13.4375 -12.765625 C -13.75 -12.441406 -14.054688 -12.15625 -14.359375 -11.90625 C -14.671875 -11.65625 -14.988281 -11.425781 -15.3125 -11.21875 L -15.984375 -11.671875 L -14.5625 -13.796875 C -14.144531 -14.421875 -13.722656 -15.125 -13.296875 -15.90625 C -12.867188 -16.6875 -12.4375 -17.410156 -12 -18.078125 C -11.476562 -18.847656 -10.890625 -19.546875 -10.234375 -20.171875 C -9.578125 -20.796875 -8.859375 -21.257812 -8.078125 -21.5625 C -7.304688 -21.875 -6.476562 -21.988281 -5.59375 -21.90625 C -4.707031 -21.832031 -3.78125 -21.472656 -2.8125 -20.828125 C -1.882812 -20.203125 -1.210938 -19.488281 -0.796875 -18.6875 C -0.378906 -17.882812 -0.160156 -17.039062 -0.140625 -16.15625 C -0.128906 -15.28125 -0.28125 -14.390625 -0.59375 -13.484375 C -0.90625 -12.578125 -1.332031 -11.71875 -1.875 -10.90625 C -1.925781 -10.832031 -2.003906 -10.710938 -2.109375 -10.546875 C -2.222656 -10.378906 -2.347656 -10.203125 -2.484375 -10.015625 C -2.617188 -9.835938 -2.753906 -9.671875 -2.890625 -9.515625 C -3.023438 -9.359375 -3.125 -9.242188 -3.1875 -9.171875 Z M -11.109375 -16.765625 C -11.359375 -16.390625 -11.550781 -16.082031 -11.6875 -15.84375 C -11.820312 -15.601562 -11.941406 -15.351562 -12.046875 -15.09375 L -4.4375 -10 C -4.351562 -10.0625 -4.253906 -10.160156 -4.140625 -10.296875 C -4.035156 -10.441406 -3.921875 -10.59375 -3.796875 -10.75 C -3.671875 -10.90625 -3.554688 -11.0625 -3.453125 -11.21875 C -3.347656 -11.375 -3.257812 -11.5 -3.1875 -11.59375 C -2.820312 -12.132812 -2.550781 -12.695312 -2.375 -13.28125 C -2.207031 -13.875 -2.164062 -14.460938 -2.25 -15.046875 C -2.332031 -15.628906 -2.550781 -16.203125 -2.90625 -16.765625 C -3.257812 -17.328125 -3.789062 -17.84375 -4.5 -18.3125 C -5.78125 -19.164062 -6.984375 -19.441406 -8.109375 -19.140625 C -9.242188 -18.847656 -10.242188 -18.054688 -11.109375 -16.765625 Z M -11.109375 -16.765625 "/></g></g></g><g fill="#000000" fill-opacity="1"><g transform="translate(64.809659, 71.041742)"><g><path d="M 4.65625 -4.21875 L 0 0 L -0.546875 -0.609375 C -0.242188 -1.285156 0.0976562 -1.90625 0.484375 -2.46875 L -6.734375 -21.078125 L -6.125 -21.625 L 11.6875 -12.640625 C 12.019531 -12.835938 12.351562 -13.023438 12.6875 -13.203125 C 13.019531 -13.390625 13.375 -13.519531 13.75 -13.59375 L 14.296875 -12.984375 L 8.9375 -8.109375 L 8.390625 -8.71875 C 8.566406 -9.09375 8.757812 -9.453125 8.96875 -9.796875 C 9.1875 -10.148438 9.410156 -10.476562 9.640625 -10.78125 L 4.75 -13.3125 L -0.265625 -8.765625 L 1.828125 -3.6875 C 2.492188 -4.132812 3.253906 -4.515625 4.109375 -4.828125 Z M -0.8125 -10.25 L 3.40625 -14.078125 L -2.28125 -17.015625 L -4.296875 -18.46875 L -4.34375 -18.421875 L -3.203125 -16.109375 Z M -0.8125 -10.25 "/></g></g></g><g fill="#000000" fill-opacity="1"><g transform="translate(86.844992, 52.714903)"><g><path d="M 11.265625 -11.78125 L 11.90625 -12.125 C 12.226562 -11.71875 12.609375 -11.171875 13.046875 -10.484375 C 13.492188 -9.804688 13.878906 -9.125 14.203125 -8.4375 C 14.035156 -8.082031 13.789062 -7.734375 13.46875 -7.390625 C 13.15625 -7.046875 12.796875 -6.722656 12.390625 -6.421875 C 11.992188 -6.117188 11.582031 -5.835938 11.15625 -5.578125 C 10.738281 -5.316406 10.335938 -5.085938 9.953125 -4.890625 L 10.203125 -3 C 11.191406 -3.507812 12.019531 -3.707031 12.6875 -3.59375 C 13.351562 -3.488281 13.84375 -3.140625 14.15625 -2.546875 C 14.414062 -2.054688 14.492188 -1.550781 14.390625 -1.03125 C 14.296875 -0.519531 14.09375 -0.0195312 13.78125 0.46875 C 13.476562 0.957031 13.085938 1.398438 12.609375 1.796875 C 12.140625 2.191406 11.664062 2.519531 11.1875 2.78125 L 10.75 1.953125 C 11.363281 1.492188 11.820312 1.015625 12.125 0.515625 C 12.4375 0.015625 12.457031 -0.472656 12.1875 -0.953125 C 11.925781 -1.410156 11.554688 -1.644531 11.078125 -1.65625 C 10.609375 -1.675781 9.976562 -1.507812 9.1875 -1.15625 L 8.671875 -4.34375 C 6.242188 -3.375 4.015625 -3.273438 1.984375 -4.046875 C -0.046875 -4.816406 -1.804688 -6.613281 -3.296875 -9.4375 C -4.160156 -11.070312 -4.671875 -12.578125 -4.828125 -13.953125 C -4.984375 -15.335938 -4.867188 -16.59375 -4.484375 -17.71875 C -4.109375 -18.851562 -3.5 -19.851562 -2.65625 -20.71875 C -1.820312 -21.59375 -0.847656 -22.328125 0.265625 -22.921875 C 1.367188 -23.492188 2.332031 -23.910156 3.15625 -24.171875 C 3.988281 -24.429688 4.757812 -24.570312 5.46875 -24.59375 C 5.601562 -24.332031 5.757812 -24.015625 5.9375 -23.640625 C 6.113281 -23.273438 6.289062 -22.878906 6.46875 -22.453125 C 6.65625 -22.035156 6.820312 -21.625 6.96875 -21.21875 C 7.113281 -20.8125 7.25 -20.429688 7.375 -20.078125 L 6.71875 -19.734375 L 3.515625 -22.640625 C 3.265625 -22.648438 2.921875 -22.554688 2.484375 -22.359375 C 2.046875 -22.171875 1.617188 -21.96875 1.203125 -21.75 C 0.378906 -21.3125 -0.316406 -20.742188 -0.890625 -20.046875 C -1.472656 -19.347656 -1.875 -18.523438 -2.09375 -17.578125 C -2.3125 -16.640625 -2.328125 -15.597656 -2.140625 -14.453125 C -1.960938 -13.304688 -1.523438 -12.070312 -0.828125 -10.75 C -0.203125 -9.570312 0.507812 -8.582031 1.3125 -7.78125 C 2.113281 -6.976562 2.976562 -6.390625 3.90625 -6.015625 C 4.832031 -5.648438 5.796875 -5.503906 6.796875 -5.578125 C 7.804688 -5.648438 8.828125 -5.957031 9.859375 -6.5 C 10.410156 -6.789062 10.847656 -7.070312 11.171875 -7.34375 C 11.492188 -7.625 11.679688 -7.867188 11.734375 -8.078125 Z M 11.265625 -11.78125 "/></g></g></g><g fill="#000000" fill-opacity="1"><g transform="translate(111.6232, 40.749727)"><g><path d="M -0.8125 -9.96875 C -1.144531 -11.40625 -1.253906 -12.78125 -1.140625 -14.09375 C -1.035156 -15.40625 -0.710938 -16.585938 -0.171875 -17.640625 C 0.359375 -18.703125 1.109375 -19.609375 2.078125 -20.359375 C 3.046875 -21.117188 4.210938 -21.660156 5.578125 -21.984375 C 6.960938 -22.304688 8.25 -22.34375 9.4375 -22.09375 C 10.632812 -21.851562 11.707031 -21.375 12.65625 -20.65625 C 13.613281 -19.945312 14.429688 -19.03125 15.109375 -17.90625 C 15.796875 -16.78125 16.304688 -15.5 16.640625 -14.0625 C 16.984375 -12.632812 17.097656 -11.257812 16.984375 -9.9375 C 16.878906 -8.625 16.554688 -7.4375 16.015625 -6.375 C 15.484375 -5.320312 14.734375 -4.421875 13.765625 -3.671875 C 12.804688 -2.921875 11.632812 -2.382812 10.25 -2.0625 C 8.882812 -1.738281 7.601562 -1.695312 6.40625 -1.9375 C 5.207031 -2.175781 4.128906 -2.648438 3.171875 -3.359375 C 2.222656 -4.078125 1.40625 -5 0.71875 -6.125 C 0.0390625 -7.257812 -0.46875 -8.539062 -0.8125 -9.96875 Z M 2.125 -10.65625 C 2.40625 -9.476562 2.789062 -8.398438 3.28125 -7.421875 C 3.769531 -6.453125 4.351562 -5.640625 5.03125 -4.984375 C 5.707031 -4.335938 6.476562 -3.875 7.34375 -3.59375 C 8.207031 -3.3125 9.15625 -3.296875 10.1875 -3.546875 C 11.113281 -3.765625 11.867188 -4.179688 12.453125 -4.796875 C 13.046875 -5.410156 13.472656 -6.15625 13.734375 -7.03125 C 14.003906 -7.90625 14.132812 -8.882812 14.125 -9.96875 C 14.113281 -11.0625 13.96875 -12.195312 13.6875 -13.375 C 13.414062 -14.550781 13.035156 -15.628906 12.546875 -16.609375 C 12.066406 -17.585938 11.488281 -18.40625 10.8125 -19.0625 C 10.144531 -19.71875 9.378906 -20.179688 8.515625 -20.453125 C 7.660156 -20.722656 6.722656 -20.738281 5.703125 -20.5 C 4.679688 -20.257812 3.867188 -19.832031 3.265625 -19.21875 C 2.671875 -18.601562 2.242188 -17.859375 1.984375 -16.984375 C 1.722656 -16.109375 1.613281 -15.128906 1.65625 -14.046875 C 1.695312 -12.960938 1.851562 -11.832031 2.125 -10.65625 Z M 2.125 -10.65625 "/></g></g></g><g fill="#000000" fill-opacity="1"><g transform="translate(141.789463, 35.475365)"><g/></g></g><g fill="#5ab334" fill-opacity="1"><g transform="translate(158.575911, 35.568371)"><g><path d="M 6.015625 -0.4375 C 6.421875 -0.269531 6.8125 -0.101562 7.1875 0.0625 C 7.5625 0.238281 7.921875 0.441406 8.265625 0.671875 L 8.125 1.46875 L 0.796875 0.140625 L 0.9375 -0.65625 C 1.394531 -0.78125 1.816406 -0.851562 2.203125 -0.875 C 2.585938 -0.90625 2.972656 -0.914062 3.359375 -0.90625 L 6.328125 -17.40625 C 5.867188 -17.59375 5.460938 -17.78125 5.109375 -17.96875 C 4.753906 -18.15625 4.4375 -18.34375 4.15625 -18.53125 L 4.3125 -19.328125 L 6.78125 -18.875 C 7.507812 -18.75 8.320312 -18.644531 9.21875 -18.5625 C 10.113281 -18.476562 10.972656 -18.363281 11.796875 -18.21875 C 12.710938 -18.050781 13.546875 -17.789062 14.296875 -17.4375 C 15.054688 -17.09375 15.679688 -16.644531 16.171875 -16.09375 C 16.671875 -15.550781 17.019531 -14.90625 17.21875 -14.15625 C 17.414062 -13.414062 17.425781 -12.5625 17.25 -11.59375 C 17.007812 -10.238281 16.453125 -9.175781 15.578125 -8.40625 C 14.703125 -7.644531 13.613281 -7.1875 12.3125 -7.03125 C 12.882812 -5.625 13.492188 -4.222656 14.140625 -2.828125 C 14.785156 -1.429688 15.476562 -0.03125 16.21875 1.375 L 17.5625 2.453125 L 17.4375 3.140625 L 14.0625 2.53125 L 13.171875 1.5625 C 12.753906 0.820312 12.390625 0.101562 12.078125 -0.59375 C 11.773438 -1.289062 11.492188 -1.988281 11.234375 -2.6875 C 10.972656 -3.394531 10.738281 -4.109375 10.53125 -4.828125 C 10.332031 -5.546875 10.132812 -6.304688 9.9375 -7.109375 L 7.3125 -7.59375 Z M 10.9375 -16.875 C 10.5 -16.945312 10.132812 -17 9.84375 -17.03125 C 9.550781 -17.0625 9.273438 -17.078125 9.015625 -17.078125 L 7.515625 -8.765625 L 9.53125 -8.390625 C 10.8125 -8.160156 11.898438 -8.382812 12.796875 -9.0625 C 13.691406 -9.738281 14.257812 -10.742188 14.5 -12.078125 C 14.75 -13.453125 14.53125 -14.535156 13.84375 -15.328125 C 13.164062 -16.128906 12.195312 -16.644531 10.9375 -16.875 Z M 10.9375 -16.875 "/></g></g></g><g fill="#5ab334" fill-opacity="1"><g transform="translate(185.377685, 41.639465)"><g><path d="M 20.984375 -12.34375 C 20.671875 -11.664062 20.335938 -10.988281 19.984375 -10.3125 C 19.628906 -9.632812 19.253906 -8.957031 18.859375 -8.28125 L 18.1875 -8.578125 L 18.375 -11.890625 L 12.734375 -14.390625 L 9.71875 -7.546875 L 13.9375 -5.6875 L 15.796875 -7.15625 L 16.4375 -6.875 C 15.789062 -5.113281 15.019531 -3.367188 14.125 -1.640625 L 13.484375 -1.921875 L 13.34375 -4.34375 L 9.125 -6.203125 L 5.9375 1.015625 L 11.90625 3.65625 L 14.53125 1.109375 L 15.171875 1.390625 C 14.972656 2.160156 14.734375 2.925781 14.453125 3.6875 C 14.179688 4.457031 13.863281 5.210938 13.5 5.953125 L 0.75 0.328125 L 1.078125 -0.421875 C 1.804688 -0.421875 2.609375 -0.316406 3.484375 -0.109375 L 10.25 -15.4375 C 9.9375 -15.65625 9.617188 -15.898438 9.296875 -16.171875 C 8.984375 -16.441406 8.6875 -16.726562 8.40625 -17.03125 L 8.734375 -17.765625 Z M 20.984375 -12.34375 "/></g></g></g><g fill="#5ab334" fill-opacity="1"><g transform="translate(208.643977, 52.904498)"><g><path d="M 23.03125 -7.09375 L 27.84375 -3.328125 L 27.34375 -2.6875 C 26.394531 -2.757812 25.546875 -2.9375 24.796875 -3.21875 L 13.59375 11.078125 L 12.328125 10.09375 L 13.875 -8.5 L 14.359375 -10.90625 L 14.296875 -10.953125 L 13.125 -9.078125 L 4.859375 1.5 C 5.335938 2.132812 5.703125 2.84375 5.953125 3.625 L 5.453125 4.265625 L 0.640625 0.5 L 1.140625 -0.140625 C 1.535156 -0.0976562 1.929688 -0.0195312 2.328125 0.09375 C 2.734375 0.207031 3.15625 0.347656 3.59375 0.515625 L 13.5625 -12.234375 C 13.363281 -12.585938 13.171875 -12.941406 12.984375 -13.296875 C 12.796875 -13.660156 12.632812 -14.007812 12.5 -14.34375 L 12.96875 -14.96875 L 16.734375 -12.03125 L 15.46875 4.046875 L 15 6.75 L 15.078125 6.8125 L 16.46875 4.828125 L 23.53125 -4.203125 C 23.332031 -4.597656 23.144531 -4.976562 22.96875 -5.34375 C 22.800781 -5.71875 22.65625 -6.085938 22.53125 -6.453125 Z M 23.03125 -7.09375 "/></g></g></g><g fill="#5ab334" fill-opacity="1"><g transform="translate(231.411652, 72.270075)"><g><path d="M 8.828125 -4.703125 C 10.003906 -5.578125 11.21875 -6.222656 12.46875 -6.640625 C 13.71875 -7.066406 14.9375 -7.25 16.125 -7.1875 C 17.3125 -7.125 18.441406 -6.796875 19.515625 -6.203125 C 20.585938 -5.617188 21.546875 -4.757812 22.390625 -3.625 C 23.234375 -2.488281 23.78125 -1.320312 24.03125 -0.125 C 24.289062 1.0625 24.28125 2.234375 24 3.390625 C 23.726562 4.546875 23.207031 5.660156 22.4375 6.734375 C 21.675781 7.816406 20.707031 8.796875 19.53125 9.671875 C 18.351562 10.546875 17.140625 11.191406 15.890625 11.609375 C 14.640625 12.035156 13.421875 12.21875 12.234375 12.15625 C 11.046875 12.09375 9.914062 11.765625 8.84375 11.171875 C 7.769531 10.585938 6.8125 9.726562 5.96875 8.59375 C 5.125 7.457031 4.570312 6.289062 4.3125 5.09375 C 4.0625 3.90625 4.070312 2.734375 4.34375 1.578125 C 4.625 0.421875 5.144531 -0.691406 5.90625 -1.765625 C 6.675781 -2.847656 7.648438 -3.828125 8.828125 -4.703125 Z M 10.640625 -2.28125 C 9.671875 -1.5625 8.832031 -0.785156 8.125 0.046875 C 7.425781 0.890625 6.910156 1.753906 6.578125 2.640625 C 6.242188 3.523438 6.125 4.410156 6.21875 5.296875 C 6.3125 6.191406 6.675781 7.066406 7.3125 7.921875 C 7.882812 8.691406 8.566406 9.222656 9.359375 9.515625 C 10.148438 9.816406 11.003906 9.914062 11.921875 9.8125 C 12.835938 9.707031 13.789062 9.429688 14.78125 8.984375 C 15.769531 8.535156 16.75 7.953125 17.71875 7.234375 C 18.6875 6.515625 19.519531 5.738281 20.21875 4.90625 C 20.925781 4.082031 21.445312 3.226562 21.78125 2.34375 C 22.113281 1.46875 22.234375 0.582031 22.140625 -0.3125 C 22.054688 -1.21875 21.703125 -2.09375 21.078125 -2.9375 C 20.453125 -3.769531 19.734375 -4.335938 18.921875 -4.640625 C 18.117188 -4.941406 17.265625 -5.035156 16.359375 -4.921875 C 15.453125 -4.816406 14.515625 -4.53125 13.546875 -4.0625 C 12.578125 -3.59375 11.609375 -3 10.640625 -2.28125 Z M 10.640625 -2.28125 "/></g></g></g><g fill="#5ab334" fill-opacity="1"><g transform="translate(248.349213, 97.224907)"><g><path d="M 22.671875 7.5625 C 22.578125 7.09375 22.515625 6.65625 22.484375 6.25 C 22.460938 5.84375 22.441406 5.4375 22.421875 5.03125 L 23.171875 4.734375 L 25.53125 10.640625 L 24.78125 10.9375 C 24.289062 10.550781 23.816406 10.007812 23.359375 9.3125 L 4.03125 10.125 L 3.15625 8.828125 L 17.765625 -4.765625 C 17.703125 -5.148438 17.660156 -5.523438 17.640625 -5.890625 C 17.628906 -6.265625 17.625 -6.640625 17.625 -7.015625 L 18.375 -7.3125 L 21.140625 -0.359375 L 20.390625 -0.0625 C 20.148438 -0.300781 19.898438 -0.582031 19.640625 -0.90625 C 19.378906 -1.226562 19.125 -1.570312 18.875 -1.9375 L 8.671875 7.3125 L 6.78125 8.703125 L 6.796875 8.765625 L 9.171875 8.421875 Z M 22.671875 7.5625 "/></g></g></g><g fill="#5ab334" fill-opacity="1"><g transform="translate(257.744862, 124.394366)"><g><path d="M 21.515625 11.40625 C 20.773438 11.488281 20.019531 11.554688 19.25 11.609375 C 18.488281 11.671875 17.722656 11.707031 16.953125 11.71875 L 16.84375 10.984375 L 19.765625 9.421875 L 18.9375 3.3125 L 11.53125 4.328125 L 12.15625 8.890625 L 14.359375 9.703125 L 14.453125 10.40625 C 12.628906 10.769531 10.742188 11.023438 8.796875 11.171875 L 8.703125 10.46875 L 10.6875 9.09375 L 10.0625 4.53125 L 2.25 5.59375 L 3.125 12.046875 L 6.671875 12.953125 L 6.765625 13.640625 C 6.003906 13.878906 5.226562 14.082031 4.4375 14.25 C 3.644531 14.414062 2.832031 14.535156 2 14.609375 L 0.109375 0.8125 L 0.921875 0.703125 C 1.304688 1.316406 1.632812 2.050781 1.90625 2.90625 L 18.515625 0.625 C 18.535156 0.25 18.578125 -0.140625 18.640625 -0.546875 C 18.710938 -0.960938 18.800781 -1.367188 18.90625 -1.765625 L 19.703125 -1.875 Z M 21.515625 11.40625 "/></g></g></g></svg>