<svg xmlns="http://www.w3.org/2000/svg" xmlns:xlink="http://www.w3.org/1999/xlink" width="128" zoomAndPan="magnify" viewBox="0 0 96 95.999999" height="128" preserveAspectRatio="xMidYMid meet" version="1.0"><defs><clipPath id="0dbc71e0f4"><path d="M 0.167969 0.3125 L 95.832031 0.3125 L 95.832031 95.972656 L 0.167969 95.972656 Z M 0.167969 0.3125 " clip-rule="nonzero"/></clipPath><clipPath id="94ba204268"><path d="M 48 0.3125 C 21.582031 0.3125 0.167969 21.726562 0.167969 48.140625 C 0.167969 74.558594 21.582031 95.972656 48 95.972656 C 74.417969 95.972656 95.832031 74.558594 95.832031 48.140625 C 95.832031 21.726562 74.417969 0.3125 48 0.3125 Z M 48 0.3125 " clip-rule="nonzero"/></clipPath><clipPath id="fe6c95b0bf"><path d="M 14.519531 14 L 81.269531 14 L 81.269531 80.585938 L 14.519531 80.585938 Z M 14.519531 14 " clip-rule="nonzero"/></clipPath></defs><g clip-path="url(#0dbc71e0f4)"><g clip-path="url(#94ba204268)"><path fill="#27963c" d="M 0.167969 0.3125 L 95.832031 0.3125 L 95.832031 95.972656 L 0.167969 95.972656 Z M 0.167969 0.3125 " fill-opacity="1" fill-rule="nonzero"/></g></g><path fill="#f2f2f2" d="M 40.695312 29.601562 C 40.851562 29.605469 41 29.582031 41.140625 29.523438 C 41.664062 29.285156 42.207031 29.078125 42.730469 28.886719 C 42.988281 28.796875 43.1875 28.632812 43.328125 28.398438 C 43.46875 28.160156 43.515625 27.90625 43.46875 27.636719 C 43.425781 27.367188 43.296875 27.140625 43.089844 26.964844 C 42.878906 26.785156 42.640625 26.695312 42.363281 26.695312 C 42.242188 26.667969 42.121094 26.667969 42 26.695312 C 41.394531 26.902344 40.808594 27.125 40.21875 27.378906 C 40.082031 27.4375 39.960938 27.523438 39.859375 27.632812 C 39.753906 27.742188 39.675781 27.867188 39.621094 28.003906 C 39.570312 28.144531 39.542969 28.289062 39.546875 28.441406 C 39.554688 28.589844 39.585938 28.734375 39.648438 28.871094 C 39.726562 29.089844 39.863281 29.269531 40.054688 29.402344 C 40.25 29.535156 40.460938 29.601562 40.695312 29.601562 Z M 40.695312 29.601562 " fill-opacity="1" fill-rule="nonzero"/><path fill="#f2f2f2" d="M 18.207031 36.054688 C 18.203125 36.296875 18.214844 36.539062 18.242188 36.777344 C 18.269531 37.019531 18.308594 37.257812 18.363281 37.492188 C 18.421875 37.726562 18.492188 37.957031 18.574219 38.183594 C 18.660156 38.410156 18.757812 38.632812 18.871094 38.84375 C 18.980469 39.058594 19.105469 39.265625 19.242188 39.464844 C 19.382812 39.664062 19.53125 39.855469 19.691406 40.035156 C 19.855469 40.214844 20.023438 40.382812 20.207031 40.542969 C 20.390625 40.703125 20.582031 40.847656 20.78125 40.984375 C 20.980469 41.117188 21.191406 41.242188 21.40625 41.351562 C 21.621094 41.460938 21.84375 41.554688 22.070312 41.636719 C 22.300781 41.71875 22.53125 41.785156 22.765625 41.835938 C 23.003906 41.890625 23.242188 41.929688 23.480469 41.953125 C 23.722656 41.972656 23.964844 41.984375 24.207031 41.976562 C 24.445312 41.96875 24.6875 41.945312 24.925781 41.910156 C 25.164062 41.875 25.402344 41.824219 25.632812 41.757812 C 25.867188 41.691406 26.09375 41.609375 26.316406 41.515625 C 26.539062 41.421875 26.753906 41.3125 26.964844 41.191406 C 27.171875 41.070312 27.375 40.9375 27.566406 40.789062 C 27.757812 40.644531 27.941406 40.488281 28.117188 40.316406 C 28.289062 40.148438 28.449219 39.96875 28.601562 39.78125 C 28.75 39.59375 28.890625 39.394531 29.015625 39.1875 C 29.140625 38.980469 29.253906 38.769531 29.355469 38.546875 C 29.453125 38.328125 29.539062 38.101562 29.613281 37.871094 C 29.683594 37.640625 29.738281 37.40625 29.78125 37.167969 C 29.824219 36.929688 29.851562 36.691406 29.863281 36.449219 C 29.878906 36.207031 29.875 35.964844 29.855469 35.722656 C 29.839844 35.484375 29.808594 35.242188 29.761719 35.007812 C 29.714844 34.769531 29.652344 34.535156 29.574219 34.308594 C 29.5 34.078125 29.410156 33.855469 29.304688 33.636719 C 29.199219 33.417969 29.082031 33.207031 28.953125 33.003906 C 28.824219 32.800781 28.679688 32.605469 28.527344 32.417969 C 28.371094 32.230469 28.207031 32.054688 28.03125 31.890625 C 27.496094 31.378906 26.882812 30.984375 26.195312 30.710938 C 25.511719 30.4375 24.796875 30.300781 24.054688 30.300781 L 23.53125 30.300781 C 23.324219 29.90625 23.058594 29.550781 22.738281 29.238281 C 21.949219 28.5 21.019531 28.128906 19.941406 28.125 L 19.78125 28.125 C 19.507812 28.132812 19.238281 28.167969 18.972656 28.230469 C 18.707031 28.296875 18.449219 28.382812 18.199219 28.496094 C 17.949219 28.613281 17.714844 28.75 17.492188 28.910156 C 17.273438 29.070312 17.070312 29.25 16.882812 29.453125 C 16.699219 29.652344 16.535156 29.871094 16.390625 30.105469 C 16.25 30.335938 16.128906 30.582031 16.039062 30.839844 C 15.945312 31.097656 15.875 31.359375 15.835938 31.632812 C 15.792969 31.902344 15.78125 32.175781 15.792969 32.445312 C 15.820312 33.230469 16.054688 33.945312 16.488281 34.59375 C 16.921875 35.242188 17.496094 35.730469 18.207031 36.054688 Z M 18.714844 33.734375 L 18.636719 33.734375 C 18.261719 33.382812 18.066406 32.945312 18.050781 32.429688 C 18.03125 31.914062 18.199219 31.46875 18.558594 31.097656 C 18.902344 30.71875 19.332031 30.523438 19.84375 30.507812 C 20.34375 30.5 20.78125 30.664062 21.148438 31 L 21.148438 31.082031 C 21.046875 31.136719 20.953125 31.199219 20.863281 31.269531 C 20.707031 31.34375 20.5625 31.433594 20.433594 31.542969 C 20.152344 31.742188 19.890625 31.972656 19.652344 32.226562 C 19.40625 32.480469 19.1875 32.761719 19.003906 33.066406 C 18.921875 33.195312 18.859375 33.335938 18.78125 33.480469 C 18.753906 33.5625 18.730469 33.648438 18.714844 33.734375 Z M 22.132812 33.128906 L 22.246094 33.050781 C 22.523438 32.898438 22.8125 32.78125 23.117188 32.703125 C 23.367188 32.628906 23.621094 32.59375 23.882812 32.589844 L 24.054688 32.589844 C 24.347656 32.589844 24.636719 32.625 24.921875 32.699219 C 25.203125 32.769531 25.476562 32.875 25.734375 33.011719 C 25.992188 33.148438 26.230469 33.316406 26.449219 33.511719 C 26.667969 33.707031 26.855469 33.925781 27.019531 34.167969 C 27.183594 34.410156 27.316406 34.667969 27.417969 34.941406 C 27.519531 35.21875 27.585938 35.5 27.617188 35.792969 C 27.648438 36.082031 27.644531 36.371094 27.605469 36.664062 C 27.566406 36.953125 27.496094 37.234375 27.386719 37.503906 C 27.277344 37.777344 27.140625 38.03125 26.96875 38.269531 C 26.800781 38.507812 26.601562 38.722656 26.378906 38.914062 C 26.15625 39.101562 25.914062 39.261719 25.652344 39.394531 C 25.390625 39.523438 25.117188 39.621094 24.832031 39.6875 C 24.546875 39.75 24.257812 39.78125 23.964844 39.773438 C 23.671875 39.765625 23.386719 39.722656 23.105469 39.648438 C 22.820312 39.570312 22.550781 39.460938 22.296875 39.316406 C 22.042969 39.175781 21.808594 39.003906 21.59375 38.804688 C 21.140625 38.386719 20.820312 37.882812 20.632812 37.296875 C 20.441406 36.710938 20.40625 36.117188 20.527344 35.515625 C 20.601562 35.191406 20.71875 34.882812 20.878906 34.59375 C 20.882812 34.546875 20.882812 34.496094 20.878906 34.449219 C 21.023438 34.183594 21.199219 33.941406 21.402344 33.71875 C 21.621094 33.488281 21.863281 33.292969 22.132812 33.128906 Z M 22.132812 33.128906 " fill-opacity="1" fill-rule="nonzero"/><path fill="#f2f2f2" d="M 71.433594 47.386719 C 71.433594 48.070312 71.433594 48.753906 71.433594 49.4375 C 71.433594 50.121094 71.433594 50.453125 71.433594 51.027344 C 71.425781 51.175781 71.445312 51.320312 71.492188 51.460938 C 71.539062 51.605469 71.613281 51.730469 71.710938 51.84375 C 71.808594 51.957031 71.925781 52.046875 72.058594 52.113281 C 72.191406 52.183594 72.332031 52.222656 72.480469 52.234375 C 72.777344 52.234375 73.035156 52.132812 73.253906 51.933594 C 73.46875 51.730469 73.589844 51.480469 73.609375 51.183594 C 73.609375 50.628906 73.609375 50.054688 73.609375 49.5 C 73.613281 48.746094 73.574219 47.992188 73.5 47.242188 C 73.46875 46.953125 73.347656 46.710938 73.132812 46.515625 C 72.914062 46.320312 72.660156 46.226562 72.371094 46.226562 L 72.273438 46.226562 C 72.015625 46.292969 71.804688 46.4375 71.644531 46.65625 C 71.488281 46.875 71.417969 47.117188 71.433594 47.386719 Z M 71.433594 47.386719 " fill-opacity="1" fill-rule="nonzero"/><g clip-path="url(#fe6c95b0bf)"><path fill="#f2f2f2" d="M 80.046875 78.011719 L 78.457031 78.011719 C 78.425781 77.941406 78.390625 77.871094 78.347656 77.804688 C 74.542969 72.855469 70.265625 68.351562 65.519531 64.296875 C 62.96875 62.046875 60.648438 59.578125 58.558594 56.890625 C 53.472656 50.4375 48.59375 49.070312 47.53125 48.832031 C 44.386719 46.925781 41.675781 44.53125 39.394531 41.648438 L 34.863281 16.699219 C 34.871094 16.65625 34.871094 16.613281 34.863281 16.570312 C 34.703125 16.03125 34.421875 15.566406 34.019531 15.171875 C 33.367188 14.542969 32.589844 14.230469 31.683594 14.234375 C 31.359375 14.234375 31.042969 14.28125 30.730469 14.378906 C 30.378906 14.480469 30.136719 14.703125 30 15.042969 C 29.839844 15.378906 29.839844 15.710938 30 16.046875 C 30.554688 16.953125 31.398438 22.910156 31.957031 36.707031 C 32 37.929688 31.601562 38.992188 30.761719 39.886719 L 27.410156 43.636719 C 26.695312 44.386719 26.164062 45.25 25.820312 46.226562 C 25.503906 47.148438 25.136719 48.261719 24.722656 49.484375 C 22.878906 55.078125 18.972656 66.679688 17.699219 67.902344 C 17.433594 68.152344 17.308594 68.460938 17.332031 68.824219 C 17.367188 69.183594 17.53125 69.464844 17.828125 69.667969 C 18.320312 70.011719 18.867188 70.203125 19.46875 70.238281 C 20.070312 70.273438 20.632812 70.144531 21.164062 69.859375 C 21.703125 69.621094 22.136719 69.261719 22.46875 68.777344 C 22.476562 68.742188 22.476562 68.703125 22.46875 68.667969 L 31.304688 51.675781 C 33.859375 53.589844 36.109375 55.808594 38.058594 58.335938 C 36.414062 60.390625 34.617188 62.304688 32.671875 64.074219 C 28.027344 68.21875 23.859375 72.796875 20.164062 77.804688 C 20.15625 77.859375 20.15625 77.910156 20.164062 77.964844 L 15.648438 77.964844 C 15.5 77.964844 15.355469 77.992188 15.21875 78.050781 C 15.078125 78.109375 14.957031 78.1875 14.851562 78.292969 C 14.746094 78.402344 14.664062 78.523438 14.605469 78.660156 C 14.550781 78.800781 14.519531 78.941406 14.519531 79.09375 C 14.519531 79.242188 14.550781 79.386719 14.605469 79.523438 C 14.664062 79.664062 14.746094 79.785156 14.851562 79.890625 C 14.957031 79.996094 15.078125 80.078125 15.21875 80.136719 C 15.355469 80.191406 15.5 80.222656 15.648438 80.222656 L 80.046875 80.222656 C 80.195312 80.222656 80.339844 80.191406 80.480469 80.136719 C 80.617188 80.078125 80.738281 79.996094 80.84375 79.890625 C 80.949219 79.785156 81.03125 79.664062 81.089844 79.523438 C 81.148438 79.386719 81.175781 79.242188 81.175781 79.09375 C 81.175781 78.941406 81.148438 78.800781 81.089844 78.660156 C 81.03125 78.523438 80.949219 78.402344 80.84375 78.292969 C 80.738281 78.1875 80.617188 78.109375 80.480469 78.050781 C 80.339844 77.992188 80.195312 77.964844 80.046875 77.964844 Z M 36.53125 68.84375 C 41.144531 67.015625 45.226562 64.367188 48.769531 60.894531 C 52.535156 64.539062 56.867188 67.28125 61.769531 69.128906 C 64.789062 72.429688 68.109375 75.390625 71.734375 78.011719 L 26.632812 78.011719 C 30.25 75.300781 33.550781 72.242188 36.53125 68.84375 Z M 63.28125 67.425781 C 63.128906 67.230469 62.933594 67.109375 62.691406 67.0625 C 62.691406 67.0625 56.667969 65.472656 48.882812 57.9375 C 48.664062 57.734375 48.402344 57.625 48.101562 57.621094 C 47.777344 57.625 47.503906 57.742188 47.277344 57.972656 C 47.105469 58.160156 47.007812 58.378906 46.984375 58.632812 C 46.960938 58.886719 47.015625 59.121094 47.148438 59.339844 C 40.519531 65.3125 35.609375 66.777344 35.5625 66.792969 C 35.328125 66.855469 35.140625 66.980469 34.992188 67.171875 C 31.433594 71.160156 27.484375 74.703125 23.132812 77.804688 C 23.0625 77.859375 22.980469 77.902344 22.894531 77.933594 C 26.300781 73.515625 30.082031 69.453125 34.242188 65.742188 C 36.480469 63.691406 38.535156 61.472656 40.410156 59.082031 C 40.40625 59.042969 40.40625 59 40.410156 58.957031 C 41.964844 58.054688 43.363281 56.949219 44.597656 55.644531 C 45.832031 54.339844 46.859375 52.882812 47.671875 51.28125 C 49.480469 51.996094 51.148438 52.949219 52.675781 54.144531 C 54.207031 55.339844 55.539062 56.726562 56.667969 58.304688 C 58.84375 61.105469 61.265625 63.675781 63.929688 66.011719 C 68.160156 69.644531 72.023438 73.632812 75.515625 77.980469 L 75.359375 77.804688 C 70.945312 74.796875 66.917969 71.335938 63.28125 67.425781 Z M 31.496094 49.039062 L 30.699219 49.039062 L 30.507812 49.117188 L 30.316406 49.230469 C 30.257812 49.269531 30.203125 49.316406 30.160156 49.375 C 30.160156 49.375 30.078125 49.375 30.046875 49.484375 C 30.015625 49.59375 30.046875 49.484375 30.046875 49.484375 L 20.542969 67.554688 C 21.941406 64.679688 23.945312 58.972656 26.902344 50.199219 C 27.296875 48.992188 27.679688 47.878906 27.996094 47.019531 C 28.214844 46.347656 28.570312 45.753906 29.0625 45.242188 L 32.496094 41.539062 C 33.113281 40.882812 33.578125 40.132812 33.890625 39.289062 C 34.199219 38.445312 34.335938 37.574219 34.292969 36.675781 C 33.988281 29.253906 33.609375 23.660156 33.148438 19.972656 L 37.183594 42.394531 C 37.21875 42.59375 37.296875 42.765625 37.421875 42.921875 C 39.761719 45.878906 42.511719 48.382812 45.671875 50.4375 C 44.269531 53.089844 42.292969 55.210938 39.742188 56.796875 C 37.421875 53.816406 34.710938 51.253906 31.605469 49.101562 Z M 31.496094 49.039062 " fill-opacity="1" fill-rule="nonzero"/></g><path fill="#f2f2f2" d="M 49.753906 27.726562 C 50.945312 27.726562 52.125 27.816406 53.300781 27.996094 L 53.472656 27.996094 C 53.765625 27.996094 54.023438 27.898438 54.238281 27.699219 C 54.453125 27.503906 54.574219 27.257812 54.601562 26.964844 C 54.625 26.671875 54.546875 26.410156 54.367188 26.179688 C 54.1875 25.945312 53.953125 25.804688 53.664062 25.757812 C 52.378906 25.546875 51.089844 25.441406 49.785156 25.4375 C 49.636719 25.4375 49.492188 25.464844 49.351562 25.523438 C 49.210938 25.582031 49.085938 25.660156 48.976562 25.765625 C 48.871094 25.871094 48.785156 25.996094 48.722656 26.132812 C 48.664062 26.269531 48.632812 26.414062 48.625 26.566406 C 48.621094 26.71875 48.648438 26.867188 48.703125 27.007812 C 48.757812 27.152344 48.839844 27.277344 48.945312 27.386719 C 49.050781 27.496094 49.175781 27.578125 49.316406 27.636719 C 49.457031 27.699219 49.601562 27.726562 49.753906 27.726562 Z M 49.753906 27.726562 " fill-opacity="1" fill-rule="nonzero"/><path fill="#f2f2f2" d="M 60.039062 30.285156 C 61.085938 30.84375 62.082031 31.484375 63.027344 32.207031 C 63.230469 32.367188 63.464844 32.445312 63.726562 32.445312 C 64.097656 32.449219 64.394531 32.300781 64.613281 32.003906 C 64.710938 31.882812 64.777344 31.753906 64.816406 31.605469 C 64.859375 31.460938 64.871094 31.3125 64.851562 31.164062 C 64.832031 31.015625 64.78125 30.875 64.707031 30.742188 C 64.628906 30.613281 64.53125 30.503906 64.410156 30.414062 C 63.367188 29.601562 62.265625 28.886719 61.101562 28.265625 C 60.949219 28.1875 60.785156 28.152344 60.609375 28.15625 C 60.15625 28.148438 59.824219 28.34375 59.609375 28.746094 C 59.535156 28.875 59.492188 29.015625 59.476562 29.164062 C 59.457031 29.3125 59.46875 29.457031 59.507812 29.601562 C 59.550781 29.746094 59.613281 29.878906 59.707031 29.996094 C 59.796875 30.113281 59.910156 30.210938 60.039062 30.285156 Z M 60.039062 30.285156 " fill-opacity="1" fill-rule="nonzero"/><path fill="#f2f2f2" d="M 69.621094 40.519531 C 69.707031 40.726562 69.839844 40.890625 70.027344 41.011719 C 70.210938 41.132812 70.417969 41.191406 70.636719 41.1875 C 70.804688 41.1875 70.960938 41.15625 71.113281 41.09375 C 71.394531 40.976562 71.59375 40.777344 71.710938 40.503906 C 71.832031 40.226562 71.839844 39.945312 71.734375 39.664062 C 71.191406 38.460938 70.558594 37.3125 69.828125 36.214844 C 69.601562 35.882812 69.289062 35.714844 68.890625 35.707031 C 68.664062 35.703125 68.457031 35.769531 68.269531 35.894531 C 68.140625 35.980469 68.035156 36.082031 67.949219 36.210938 C 67.863281 36.335938 67.804688 36.472656 67.773438 36.625 C 67.746094 36.773438 67.746094 36.921875 67.777344 37.074219 C 67.808594 37.222656 67.867188 37.359375 67.953125 37.484375 C 68.585938 38.453125 69.140625 39.464844 69.621094 40.519531 Z M 69.621094 40.519531 " fill-opacity="1" fill-rule="nonzero"/><path fill="#f2f2f2" d="M 71.289062 57.304688 C 71.148438 57.238281 71 57.207031 70.84375 57.207031 C 70.617188 57.210938 70.410156 57.273438 70.222656 57.402344 C 70.035156 57.53125 69.898438 57.699219 69.8125 57.90625 C 69.589844 58.417969 69.335938 58.941406 69.082031 59.496094 C 69 59.632812 68.949219 59.777344 68.933594 59.933594 C 68.914062 60.089844 68.925781 60.246094 68.972656 60.394531 C 69.015625 60.546875 69.089844 60.683594 69.191406 60.800781 C 69.292969 60.921875 69.417969 61.015625 69.558594 61.085938 C 69.722656 61.175781 69.894531 61.21875 70.082031 61.214844 C 70.535156 61.210938 70.871094 61.007812 71.082031 60.609375 C 71.371094 60.054688 71.640625 59.464844 71.894531 58.894531 C 71.96875 58.75 72.015625 58.597656 72.023438 58.433594 C 72.035156 58.269531 72.011719 58.113281 71.953125 57.960938 C 71.894531 57.808594 71.808594 57.675781 71.691406 57.558594 C 71.578125 57.445312 71.441406 57.359375 71.289062 57.304688 Z M 71.289062 57.304688 " fill-opacity="1" fill-rule="nonzero"/></svg>