<svg xmlns="http://www.w3.org/2000/svg" xmlns:xlink="http://www.w3.org/1999/xlink" width="88" zoomAndPan="magnify" viewBox="0 0 66 66" height="88" preserveAspectRatio="xMidYMid meet" version="1.0"><defs><clipPath id="5de2882d63"><path d="M 0.601562 0.320312 L 65.808594 0.320312 L 65.808594 65.53125 L 0.601562 65.53125 Z M 0.601562 0.320312 " clip-rule="nonzero"/></clipPath><clipPath id="38ef9645ed"><path d="M 33.203125 0.320312 C 15.199219 0.320312 0.601562 14.917969 0.601562 32.925781 C 0.601562 50.933594 15.199219 65.53125 33.203125 65.53125 C 51.210938 65.53125 65.808594 50.933594 65.808594 32.925781 C 65.808594 14.917969 51.210938 0.320312 33.203125 0.320312 Z M 33.203125 0.320312 " clip-rule="nonzero"/></clipPath><clipPath id="8e9e3c7651"><path d="M 8.132812 22 L 20 22 L 20 29 L 8.132812 29 Z M 8.132812 22 " clip-rule="nonzero"/></clipPath><clipPath id="e7f8a3719f"><path d="M 49 15 L 58.382812 15 L 58.382812 24 L 49 24 Z M 49 15 " clip-rule="nonzero"/></clipPath><clipPath id="05c631c0ab"><path d="M 28 7.40625 L 36 7.40625 L 36 19 L 28 19 Z M 28 7.40625 " clip-rule="nonzero"/></clipPath><clipPath id="304e5e2873"><path d="M 17 20 L 43 20 L 43 58.40625 L 17 58.40625 Z M 17 20 " clip-rule="nonzero"/></clipPath></defs><g clip-path="url(#5de2882d63)"><g clip-path="url(#38ef9645ed)"><path fill="#f2f2f2" d="M 0.601562 0.320312 L 65.808594 0.320312 L 65.808594 65.53125 L 0.601562 65.53125 Z M 0.601562 0.320312 " fill-opacity="1" fill-rule="nonzero"/></g></g><g clip-path="url(#8e9e3c7651)"><path fill="#80cc28" d="M 8.132812 24 C 8.132812 24 17.375 18.65625 19.644531 25.59375 C 16.914062 24.726562 13.871094 24.894531 13.871094 24.894531 C 13.871094 24.894531 16.320312 25.542969 19.339844 27.074219 C 16.175781 30.660156 13.066406 27.714844 10.804688 25.609375 C 9.609375 24.503906 8.132812 24 8.132812 24 " fill-opacity="1" fill-rule="nonzero"/></g><g clip-path="url(#e7f8a3719f)"><path fill="#80cc28" d="M 58.382812 15.003906 C 58.382812 15.003906 47.710938 15.480469 49.554688 22.542969 C 51.382812 20.34375 54.039062 18.84375 54.039062 18.84375 C 54.039062 18.84375 52.328125 20.707031 50.613281 23.621094 C 55.21875 24.9375 56.242188 20.785156 57.007812 17.796875 C 57.414062 16.222656 58.382812 15.003906 58.382812 15.003906 " fill-opacity="1" fill-rule="nonzero"/></g><g clip-path="url(#05c631c0ab)"><path fill="#80cc28" d="M 30.378906 7.40625 C 30.378906 7.40625 25.929688 17.0625 32.921875 18.925781 C 32.152344 15.792969 31.925781 12.667969 31.925781 12.667969 C 31.925781 12.667969 33.421875 15.421875 34.46875 18.472656 C 39.351562 13.140625 30.378906 7.40625 30.378906 7.40625 " fill-opacity="1" fill-rule="nonzero"/></g><g clip-path="url(#304e5e2873)"><path fill="#80cc28" d="M 35.125 24.734375 C 37.265625 24.660156 39.070312 26.523438 39.148438 28.890625 C 39.230469 31.253906 37.558594 33.234375 35.414062 33.304688 C 33.273438 33.378906 31.46875 31.519531 31.390625 29.152344 C 31.308594 26.785156 32.980469 24.804688 35.125 24.734375 Z M 26.382812 58.40625 C 39.550781 40.671875 23.5625 26.332031 23.5625 26.332031 C 33.835938 30.605469 33.621094 39.597656 36.667969 39.179688 C 38.875 38.875 39.773438 31.304688 41.359375 25.523438 C 41.671875 24.382812 42.128906 23.390625 42.660156 22.523438 C 40.40625 21.507812 37.90625 20.941406 35.269531 20.941406 C 25.363281 20.941406 17.328125 28.949219 17.328125 38.828125 C 17.328125 45.859375 21.394531 51.941406 27.3125 54.867188 C 27.132812 55.851562 26.824219 57.269531 26.382812 58.40625 " fill-opacity="1" fill-rule="nonzero"/></g><path fill="#27963c" d="M 46.964844 25.265625 C 46.972656 23.914062 47.136719 20.070312 48.605469 17.539062 C 39.292969 25.53125 50.144531 45.429688 31.027344 56.214844 C 32.386719 56.542969 33.808594 56.71875 35.269531 56.71875 C 45.175781 56.71875 53.207031 48.707031 53.207031 38.828125 C 53.207031 33.40625 50.789062 28.546875 46.964844 25.265625 " fill-opacity="1" fill-rule="nonzero"/></svg>