<svg xmlns="http://www.w3.org/2000/svg" xmlns:xlink="http://www.w3.org/1999/xlink" width="250" zoomAndPan="magnify" viewBox="0 0 375 374.999991" height="300" preserveAspectRatio="xMidYMid meet" version="1.0"><defs><clipPath id="edf26f032a"><path d="M 162.425781 176 L 174 176 L 174 184 L 162.425781 184 Z M 162.425781 176 " clip-rule="nonzero"/></clipPath><clipPath id="106e2124a1"><path d="M 203 169 L 212.675781 169 L 212.675781 179 L 203 179 Z M 203 169 " clip-rule="nonzero"/></clipPath><clipPath id="f047b0473b"><path d="M 183 161.980469 L 191 161.980469 L 191 174 L 183 174 Z M 183 161.980469 " clip-rule="nonzero"/></clipPath><clipPath id="21fba3f13e"><path d="M 171 175 L 197 175 L 197 212.980469 L 171 212.980469 Z M 171 175 " clip-rule="nonzero"/></clipPath></defs><g clip-path="url(#edf26f032a)"><path fill="#80cc28" d="M 162.429688 178.574219 C 162.429688 178.574219 171.671875 173.230469 173.941406 180.167969 C 171.210938 179.300781 168.164062 179.46875 168.164062 179.46875 C 168.164062 179.46875 170.613281 180.117188 173.636719 181.648438 C 170.472656 185.234375 167.363281 182.289062 165.097656 180.183594 C 163.90625 179.074219 162.429688 178.574219 162.429688 178.574219 " fill-opacity="1" fill-rule="nonzero"/></g><g clip-path="url(#106e2124a1)"><path fill="#80cc28" d="M 212.679688 169.578125 C 212.679688 169.578125 202.007812 170.054688 203.851562 177.113281 C 205.679688 174.914062 208.335938 173.417969 208.335938 173.417969 C 208.335938 173.417969 206.625 175.28125 204.910156 178.195312 C 209.515625 179.511719 210.535156 175.359375 211.304688 172.371094 C 211.707031 170.796875 212.679688 169.578125 212.679688 169.578125 " fill-opacity="1" fill-rule="nonzero"/></g><g clip-path="url(#f047b0473b)"><path fill="#80cc28" d="M 184.671875 161.980469 C 184.671875 161.980469 180.222656 171.636719 187.21875 173.5 C 186.449219 170.367188 186.21875 167.242188 186.21875 167.242188 C 186.21875 167.242188 187.71875 169.996094 188.765625 173.046875 C 193.644531 167.714844 184.671875 161.980469 184.671875 161.980469 " fill-opacity="1" fill-rule="nonzero"/></g><g clip-path="url(#21fba3f13e)"><path fill="#80cc28" d="M 189.417969 179.308594 C 191.5625 179.234375 193.363281 181.09375 193.445312 183.460938 C 193.523438 185.828125 191.851562 187.808594 189.710938 187.878906 C 187.566406 187.953125 185.765625 186.089844 185.683594 183.722656 C 185.605469 181.359375 187.277344 179.378906 189.417969 179.308594 Z M 180.675781 212.980469 C 193.84375 195.242188 177.859375 180.90625 177.859375 180.90625 C 188.132812 185.179688 187.914062 194.171875 190.964844 193.75 C 193.171875 193.445312 194.070312 185.878906 195.65625 180.097656 C 195.96875 178.957031 196.425781 177.964844 196.957031 177.097656 C 194.703125 176.082031 192.199219 175.511719 189.566406 175.511719 C 179.65625 175.511719 171.625 183.523438 171.625 193.402344 C 171.625 200.433594 175.691406 206.515625 181.605469 209.441406 C 181.425781 210.425781 181.121094 211.84375 180.675781 212.980469 " fill-opacity="1" fill-rule="nonzero"/></g><path fill="#27963c" d="M 201.261719 179.839844 C 201.269531 178.488281 201.429688 174.644531 202.898438 172.113281 C 193.589844 180.105469 204.441406 200.003906 185.324219 210.789062 C 186.683594 211.117188 188.101562 211.292969 189.566406 211.292969 C 199.472656 211.292969 207.503906 203.28125 207.503906 193.402344 C 207.503906 187.980469 205.082031 183.121094 201.261719 179.839844 " fill-opacity="1" fill-rule="nonzero"/></svg>