<svg xmlns="http://www.w3.org/2000/svg" xmlns:xlink="http://www.w3.org/1999/xlink" width="129" zoomAndPan="magnify" viewBox="0 0 96.75 96.75" height="129" preserveAspectRatio="xMidYMid meet" version="1.0"><defs><clipPath id="2f43ae54cc"><path d="M 0.410156 0.59375 L 96.070312 0.59375 L 96.070312 96.257812 L 0.410156 96.257812 Z M 0.410156 0.59375 " clip-rule="nonzero"/></clipPath><clipPath id="2b2826e4e7"><path d="M 48.238281 0.59375 C 21.824219 0.59375 0.410156 22.007812 0.410156 48.425781 C 0.410156 74.84375 21.824219 96.257812 48.238281 96.257812 C 74.65625 96.257812 96.070312 74.84375 96.070312 48.425781 C 96.070312 22.007812 74.65625 0.59375 48.238281 0.59375 Z M 48.238281 0.59375 " clip-rule="nonzero"/></clipPath><clipPath id="ac99a75121"><path d="M 15.503906 9.277344 L 80.753906 9.277344 L 80.753906 87.277344 L 15.503906 87.277344 Z M 15.503906 9.277344 " clip-rule="nonzero"/></clipPath></defs><g clip-path="url(#2f43ae54cc)"><g clip-path="url(#2b2826e4e7)"><path fill="#27963c" d="M 0.410156 0.59375 L 96.070312 0.59375 L 96.070312 96.257812 L 0.410156 96.257812 Z M 0.410156 0.59375 " fill-opacity="1" fill-rule="nonzero"/></g></g><g clip-path="url(#ac99a75121)"><path fill="#ffffff" d="M 61.160156 79.4375 L 59.996094 79.5625 C 59.996094 79.644531 59.996094 79.726562 60.082031 79.851562 C 60.453125 80.558594 60.828125 81.261719 61.160156 81.96875 C 61.367188 82.382812 61.203125 82.878906 60.785156 83.085938 C 60.371094 83.296875 59.875 83.128906 59.664062 82.714844 C 59.292969 82.007812 58.917969 81.304688 58.585938 80.597656 C 58.171875 79.726562 58.296875 78.773438 58.878906 78.191406 C 59 78.066406 59.167969 77.984375 59.332031 77.984375 L 60.953125 77.777344 C 61.117188 77.777344 61.242188 77.652344 61.324219 77.527344 C 61.492188 77.277344 61.617188 76.863281 61.492188 76.324219 L 61.078125 75.621094 C 60.785156 75.164062 60.621094 74.914062 60.578125 74.832031 C 60.371094 74.625 60.121094 74.457031 59.832031 74.417969 C 59.789062 74.417969 59.75 74.417969 59.707031 74.417969 C 59.542969 74.417969 59.332031 74.664062 59.25 74.996094 C 59.085938 75.785156 58.753906 76.449219 58.253906 76.988281 C 58.089844 77.195312 57.882812 77.363281 57.632812 77.527344 C 56.761719 78.234375 55.679688 78.773438 54.476562 79.0625 L 47.589844 80.679688 C 47.464844 80.722656 47.421875 80.804688 47.378906 80.890625 C 47.339844 81.054688 47.378906 81.261719 47.464844 81.34375 C 47.464844 81.386719 47.503906 81.386719 47.503906 81.429688 C 47.546875 81.46875 47.589844 81.511719 47.628906 81.59375 C 47.671875 81.636719 47.753906 81.675781 47.835938 81.761719 C 47.921875 81.800781 48.167969 81.800781 48.335938 81.800781 C 48.585938 81.800781 48.832031 81.84375 49.082031 81.882812 C 49.789062 82.050781 50.367188 82.546875 50.785156 83.378906 C 50.992188 83.792969 50.824219 84.289062 50.453125 84.5 C 50.328125 84.582031 50.203125 84.582031 50.078125 84.582031 C 49.789062 84.582031 49.496094 84.414062 49.332031 84.125 C 49.125 83.75 48.917969 83.542969 48.707031 83.460938 C 48.625 83.460938 48.542969 83.417969 48.417969 83.417969 C 48.417969 83.460938 48.417969 83.503906 48.417969 83.585938 C 48.375 84 48.210938 84.332031 48.085938 84.621094 L 48.003906 84.746094 C 47.921875 84.914062 47.921875 85.164062 48.003906 85.371094 C 48.085938 85.496094 48.292969 85.535156 48.375 85.535156 C 48.707031 85.535156 49.039062 85.535156 49.414062 85.535156 C 49.621094 85.535156 49.828125 85.496094 50.035156 85.496094 L 54.894531 85.410156 C 55.015625 85.410156 55.101562 85.371094 55.140625 85.328125 C 55.265625 85.246094 55.308594 84.996094 55.308594 84.832031 C 55.347656 84.664062 55.347656 84.582031 55.347656 84.457031 C 55.347656 84.289062 55.347656 84.042969 55.433594 83.75 C 55.433594 83.667969 55.472656 83.628906 55.515625 83.585938 C 55.765625 83.171875 56.136719 82.921875 56.59375 82.839844 C 57.007812 82.757812 57.464844 82.921875 57.796875 83.210938 C 57.882812 83.253906 57.921875 83.335938 57.964844 83.417969 L 59.292969 85.785156 C 59.5 86.199219 59.375 86.699219 58.960938 86.90625 C 58.546875 87.113281 58.046875 86.988281 57.839844 86.574219 L 56.96875 84.996094 C 56.96875 85.039062 56.96875 85.078125 56.925781 85.164062 C 56.886719 85.496094 56.761719 86.117188 56.261719 86.574219 C 56.011719 86.820312 55.597656 87.070312 54.894531 87.113281 L 50.035156 87.195312 C 49.828125 87.195312 49.664062 87.195312 49.457031 87.238281 C 49.164062 87.238281 48.917969 87.277344 48.625 87.277344 C 48.5 87.277344 48.335938 87.277344 48.210938 87.277344 C 47.378906 87.238281 46.714844 86.78125 46.425781 86.117188 C 46.136719 85.496094 46.136719 84.746094 46.425781 84.125 L 46.507812 83.960938 C 46.632812 83.75 46.675781 83.628906 46.675781 83.503906 C 46.675781 83.335938 46.632812 83.171875 46.59375 83.085938 C 46.550781 83.003906 46.507812 82.964844 46.46875 82.878906 C 46.382812 82.796875 46.300781 82.714844 46.21875 82.671875 C 46.136719 82.589844 46.050781 82.464844 46.011719 82.382812 C 45.636719 81.84375 45.554688 81.136719 45.761719 80.515625 C 45.96875 79.894531 46.425781 79.4375 47.046875 79.230469 C 47.089844 79.230469 47.089844 79.230469 47.132812 79.1875 L 54.0625 77.527344 C 55.015625 77.277344 55.890625 76.863281 56.59375 76.285156 C 56.636719 76.242188 56.636719 76.242188 56.675781 76.242188 C 56.800781 76.160156 56.925781 76.074219 57.007812 75.953125 C 57.300781 75.660156 57.507812 75.246094 57.589844 74.707031 C 57.839844 73.585938 58.667969 72.839844 59.664062 72.796875 C 59.789062 72.796875 59.914062 72.796875 60.039062 72.839844 C 60.871094 72.964844 61.449219 73.460938 61.699219 73.710938 C 61.78125 73.792969 61.90625 73.917969 62.488281 74.832031 L 62.984375 75.660156 C 63.027344 75.746094 63.070312 75.785156 63.070312 75.867188 C 63.316406 76.824219 63.152344 77.820312 62.652344 78.566406 C 62.363281 79.023438 61.78125 79.394531 61.160156 79.4375 Z M 44.722656 75.828125 C 44.722656 76.117188 44.765625 76.449219 44.890625 76.78125 C 44.972656 77.070312 45.140625 77.320312 45.386719 77.570312 C 45.71875 77.902344 46.175781 78.109375 46.714844 78.109375 C 46.925781 78.109375 47.132812 78.066406 47.378906 78.027344 C 47.753906 77.902344 48.128906 77.777344 48.5 77.609375 C 48.667969 77.527344 48.832031 77.488281 49 77.402344 L 53.355469 75.828125 C 53.855469 75.660156 54.230469 75.328125 54.4375 74.914062 C 54.726562 74.332031 54.644531 73.753906 54.601562 73.421875 C 54.601562 73.378906 54.601562 73.378906 54.601562 73.335938 C 54.683594 73.421875 54.726562 73.460938 54.808594 73.546875 L 55.765625 74.457031 C 56.097656 74.789062 56.636719 74.75 56.925781 74.417969 C 57.257812 74.085938 57.21875 73.546875 56.886719 73.253906 L 55.929688 72.34375 C 55.722656 72.175781 55.472656 71.886719 55.226562 71.71875 L 54.894531 71.472656 C 54.808594 71.429688 54.769531 71.386719 54.683594 71.347656 C 54.230469 71.179688 53.730469 71.222656 53.316406 71.472656 C 52.941406 71.71875 52.691406 72.132812 52.691406 72.589844 C 52.691406 72.964844 52.777344 73.214844 52.859375 73.378906 C 52.902344 73.460938 52.941406 73.503906 52.941406 73.628906 C 52.984375 73.792969 52.984375 74 52.941406 74.125 C 52.902344 74.167969 52.859375 74.210938 52.734375 74.25 L 48.375 75.828125 C 48.210938 75.910156 48.003906 75.953125 47.796875 76.035156 C 47.464844 76.160156 47.171875 76.285156 46.882812 76.367188 C 46.675781 76.40625 46.550781 76.40625 46.550781 76.367188 C 46.507812 76.324219 46.46875 76.242188 46.425781 76.199219 C 46.425781 76.199219 46.425781 76.160156 46.425781 76.160156 C 46.382812 76.074219 46.382812 75.992188 46.382812 75.953125 C 46.382812 75.867188 46.382812 75.828125 46.425781 75.746094 C 46.46875 75.496094 46.507812 75.203125 46.425781 74.871094 C 46.425781 74.832031 46.382812 74.75 46.382812 74.707031 C 46.46875 74.664062 46.550781 74.664062 46.59375 74.664062 C 46.675781 74.664062 46.757812 74.664062 46.839844 74.707031 C 46.925781 74.75 47.089844 74.832031 47.339844 75.039062 C 47.503906 75.203125 47.710938 75.289062 47.921875 75.289062 C 48.128906 75.289062 48.335938 75.203125 48.5 75.039062 C 48.832031 74.707031 48.792969 74.167969 48.5 73.878906 C 48.167969 73.546875 47.796875 73.296875 47.421875 73.171875 C 47.089844 73.046875 46.757812 73.007812 46.46875 73.046875 C 46.21875 73.089844 46.011719 73.128906 45.761719 73.214844 C 45.597656 73.253906 45.386719 73.335938 45.304688 73.335938 C 45.222656 73.296875 45.140625 73.296875 45.054688 73.253906 C 44.972656 73.214844 44.933594 73.171875 44.847656 73.128906 C 44.722656 73.046875 44.558594 72.757812 44.515625 72.464844 C 44.515625 72.382812 44.476562 72.21875 44.558594 72.132812 L 50.453125 68.855469 C 51.324219 68.402344 52.070312 67.695312 52.984375 66.699219 L 53.023438 66.65625 C 53.148438 66.535156 53.316406 66.324219 53.441406 66.117188 C 53.773438 65.578125 53.980469 64.957031 54.0625 64.25 C 54.0625 64.003906 54.269531 63.835938 54.476562 63.753906 C 54.519531 63.753906 54.5625 63.753906 54.601562 63.710938 C 54.851562 63.671875 55.058594 63.753906 55.265625 63.835938 C 55.433594 63.917969 55.847656 64.292969 56.179688 64.625 C 56.304688 64.875 56.304688 65.121094 56.261719 65.371094 C 56.222656 65.496094 56.136719 65.703125 55.929688 65.785156 L 54.519531 66.449219 C 54.351562 66.535156 54.230469 66.617188 54.144531 66.78125 C 53.730469 67.488281 53.898438 68.484375 54.5625 69.0625 C 54.726562 69.230469 54.894531 69.355469 55.058594 69.519531 C 55.433594 69.851562 55.804688 70.183594 56.136719 70.515625 C 56.46875 70.847656 56.96875 70.847656 57.300781 70.558594 C 57.632812 70.226562 57.632812 69.726562 57.339844 69.394531 C 56.925781 68.980469 56.511719 68.609375 56.136719 68.277344 C 55.972656 68.152344 55.804688 67.984375 55.640625 67.859375 C 55.597656 67.820312 55.597656 67.820312 55.597656 67.777344 L 56.59375 67.320312 C 57.175781 67.03125 57.632812 66.535156 57.839844 65.871094 C 58.046875 65.164062 57.921875 64.375 57.550781 63.710938 C 57.507812 63.628906 57.464844 63.585938 57.382812 63.546875 C 56.261719 62.550781 56.054688 62.46875 55.929688 62.425781 C 55.679688 62.300781 55.058594 62.050781 54.351562 62.175781 C 54.230469 62.175781 54.144531 62.21875 54.0625 62.261719 C 53.148438 62.507812 52.484375 63.296875 52.402344 64.210938 C 52.359375 64.625 52.238281 65 52.027344 65.332031 C 51.945312 65.453125 51.863281 65.578125 51.738281 65.664062 L 51.695312 65.703125 C 50.949219 66.574219 50.285156 67.113281 49.621094 67.527344 L 43.6875 70.847656 C 43.644531 70.847656 43.644531 70.890625 43.605469 70.890625 C 42.980469 71.347656 42.730469 72.050781 42.855469 72.921875 C 42.980469 73.546875 43.3125 74.167969 43.769531 74.539062 C 43.851562 74.625 43.9375 74.707031 44.019531 74.75 C 44.101562 74.789062 44.183594 74.832031 44.308594 74.871094 C 44.308594 74.871094 44.351562 74.871094 44.351562 74.871094 C 44.433594 74.914062 44.515625 74.957031 44.558594 75.039062 C 44.722656 75.203125 44.765625 75.328125 44.765625 75.414062 C 44.765625 75.496094 44.765625 75.621094 44.765625 75.746094 C 44.765625 75.621094 44.765625 75.703125 44.722656 75.828125 Z M 51.945312 58.566406 L 51.117188 58.773438 C 51.449219 59.105469 51.78125 59.398438 52.113281 59.6875 C 52.445312 59.976562 52.484375 60.519531 52.195312 60.847656 C 51.90625 61.179688 51.363281 61.222656 51.03125 60.933594 C 50.660156 60.601562 50.328125 60.269531 49.953125 59.9375 L 49.746094 59.730469 C 49.414062 59.4375 49.25 59.023438 49.25 58.609375 C 49.289062 58.152344 49.457031 57.78125 49.746094 57.53125 C 49.828125 57.449219 49.953125 57.363281 50.121094 57.324219 L 51.53125 56.949219 C 51.820312 56.867188 52.027344 56.660156 52.113281 56.535156 C 52.113281 56.492188 52.152344 56.453125 52.152344 56.410156 C 52.113281 56.328125 52.027344 56.246094 51.988281 56.203125 C 51.90625 56.078125 51.695312 55.828125 51.613281 55.703125 C 51.488281 55.621094 51.324219 55.496094 51.03125 55.496094 C 50.992188 55.496094 50.949219 55.496094 50.910156 55.496094 C 50.699219 55.496094 50.492188 55.621094 50.410156 55.789062 C 50.160156 56.367188 49.789062 56.824219 49.289062 57.238281 C 49.082031 57.40625 48.917969 57.53125 48.75 57.613281 L 48.707031 57.65625 C 47.921875 58.152344 46.964844 58.691406 45.886719 58.984375 L 39.742188 60.640625 C 39.621094 60.890625 39.703125 61.761719 40.035156 62.21875 C 40.117188 62.34375 40.199219 62.425781 40.324219 62.507812 C 40.40625 62.550781 40.492188 62.632812 40.617188 62.675781 C 40.65625 62.675781 40.863281 62.675781 40.988281 62.632812 C 41.195312 62.59375 41.445312 62.59375 41.695312 62.59375 C 42.027344 62.632812 42.359375 62.757812 42.648438 62.964844 C 42.816406 63.089844 42.980469 63.214844 43.148438 63.339844 C 43.3125 63.503906 43.480469 63.671875 43.644531 63.878906 C 43.9375 64.210938 43.894531 64.75 43.5625 65.039062 C 43.394531 65.164062 43.230469 65.246094 43.023438 65.246094 C 42.773438 65.246094 42.566406 65.164062 42.398438 64.957031 C 42.277344 64.832031 42.152344 64.707031 42.027344 64.582031 C 42.027344 64.582031 41.984375 64.582031 41.984375 64.542969 C 41.902344 64.460938 41.820312 64.375 41.734375 64.335938 C 41.652344 64.292969 41.570312 64.25 41.527344 64.25 C 41.527344 64.25 41.488281 64.25 41.488281 64.25 C 41.527344 64.375 41.570312 64.460938 41.570312 64.582031 C 41.652344 64.914062 41.695312 65.246094 41.695312 65.539062 C 41.695312 65.664062 41.695312 65.746094 41.695312 65.871094 C 41.734375 66.203125 41.945312 66.699219 42.152344 66.90625 C 42.316406 67.113281 42.441406 67.03125 42.523438 67.03125 C 42.773438 66.949219 43.023438 66.78125 43.3125 66.617188 C 43.480469 66.535156 43.644531 66.410156 43.851562 66.324219 L 47.753906 64.292969 C 47.796875 64.292969 47.878906 64.210938 47.921875 64.167969 C 47.960938 64.085938 47.921875 63.917969 47.878906 63.796875 L 47.878906 63.710938 C 47.878906 63.628906 47.835938 63.585938 47.796875 63.503906 C 47.710938 63.339844 47.589844 63.089844 47.628906 62.675781 C 47.628906 62.261719 47.878906 61.886719 48.210938 61.636719 C 48.585938 61.390625 49.082031 61.304688 49.539062 61.429688 C 49.621094 61.472656 49.703125 61.511719 49.789062 61.554688 L 50.699219 62.21875 L 51.613281 62.839844 C 51.988281 63.089844 52.113281 63.628906 51.863281 64.003906 C 51.613281 64.375 51.074219 64.5 50.699219 64.25 L 49.582031 63.464844 L 49.582031 63.503906 C 49.621094 63.796875 49.746094 64.292969 49.539062 64.832031 C 49.332031 65.371094 48.917969 65.664062 48.585938 65.828125 L 44.683594 67.859375 C 44.515625 67.945312 44.390625 68.027344 44.226562 68.109375 C 43.894531 68.316406 43.5625 68.484375 43.1875 68.648438 C 42.941406 68.734375 42.730469 68.773438 42.484375 68.773438 C 41.945312 68.773438 41.445312 68.566406 41.03125 68.109375 C 40.574219 67.613281 40.199219 66.78125 40.117188 66.078125 C 40.117188 65.953125 40.117188 65.785156 40.074219 65.664062 C 40.074219 65.414062 40.074219 65.246094 39.992188 65.039062 C 39.867188 64.582031 39.660156 64.25 39.621094 64.128906 C 39.496094 63.960938 39.410156 63.835938 39.289062 63.753906 C 39.289062 63.753906 39.246094 63.710938 39.246094 63.710938 C 39.121094 63.628906 39.039062 63.546875 38.957031 63.464844 C 38.871094 63.378906 38.832031 63.296875 38.789062 63.214844 C 38.789062 63.214844 38.746094 63.171875 38.746094 63.171875 C 38.167969 62.34375 37.917969 61.097656 38.207031 60.1875 C 38.375 59.644531 38.707031 59.230469 39.164062 59.066406 C 39.203125 59.066406 39.203125 59.023438 39.246094 59.023438 L 45.511719 57.324219 C 46.382812 57.074219 47.171875 56.617188 47.878906 56.203125 L 47.921875 56.160156 C 48.042969 56.078125 48.167969 55.996094 48.292969 55.914062 C 48.585938 55.664062 48.792969 55.371094 48.957031 55.039062 C 49.332031 54.253906 50.160156 53.753906 51.03125 53.796875 C 51.117188 53.796875 51.242188 53.796875 51.324219 53.835938 C 52.027344 53.921875 52.445312 54.210938 52.652344 54.378906 C 52.859375 54.5 53.023438 54.710938 53.355469 55.207031 C 53.441406 55.289062 53.6875 55.621094 53.730469 55.746094 C 53.898438 56.246094 53.898438 56.785156 53.648438 57.238281 C 53.273438 57.902344 52.652344 58.359375 51.945312 58.566406 Z M 36.714844 48.070312 C 36.546875 48.652344 36.546875 49.398438 36.753906 50.0625 C 36.753906 50.0625 36.753906 50.105469 36.753906 50.105469 C 36.753906 50.226562 36.796875 50.3125 36.839844 50.394531 C 36.878906 50.476562 36.921875 50.558594 37.003906 50.683594 C 37.003906 50.683594 37.003906 50.726562 37.046875 50.726562 C 37.128906 50.851562 37.171875 50.933594 37.210938 51.097656 C 37.253906 51.222656 37.296875 51.515625 37.296875 51.847656 C 37.253906 52.011719 37.210938 52.179688 37.171875 52.386719 C 37.128906 52.550781 37.085938 52.71875 37.046875 52.882812 C 36.878906 53.507812 36.964844 54.335938 37.253906 55 C 37.585938 55.789062 38.207031 56.246094 38.996094 56.246094 C 38.996094 56.246094 39.039062 56.246094 39.039062 56.246094 C 39.410156 56.246094 39.785156 56.160156 40.117188 56.078125 C 40.285156 56.035156 40.449219 55.996094 40.617188 55.996094 L 44.765625 55.371094 C 45.097656 55.332031 45.554688 55.164062 45.929688 54.75 C 46.261719 54.378906 46.382812 53.921875 46.425781 53.628906 L 47.132812 54.585938 C 47.421875 54.957031 47.921875 55.039062 48.292969 54.75 C 48.667969 54.460938 48.75 53.960938 48.460938 53.589844 L 47.214844 51.886719 C 47.171875 51.804688 47.089844 51.761719 47.046875 51.722656 C 46.675781 51.429688 46.175781 51.347656 45.761719 51.472656 C 45.347656 51.597656 45.054688 51.886719 44.890625 52.261719 C 44.765625 52.632812 44.765625 52.882812 44.808594 53.050781 C 44.808594 53.132812 44.808594 53.175781 44.808594 53.257812 C 44.808594 53.382812 44.765625 53.546875 44.722656 53.628906 C 44.683594 53.671875 44.601562 53.714844 44.558594 53.714844 L 40.40625 54.335938 C 40.199219 54.378906 40.035156 54.417969 39.828125 54.417969 C 39.535156 54.460938 39.246094 54.542969 38.996094 54.542969 C 38.957031 54.542969 38.871094 54.542969 38.789062 54.335938 C 38.664062 54.003906 38.625 53.546875 38.664062 53.214844 C 38.707031 53.089844 38.746094 52.964844 38.746094 52.84375 C 38.832031 52.632812 38.871094 52.34375 38.914062 52.054688 C 38.914062 51.972656 38.914062 51.886719 38.914062 51.804688 C 38.914062 51.804688 38.914062 51.804688 38.957031 51.804688 C 39.078125 51.847656 39.246094 52.09375 39.453125 52.59375 C 39.578125 52.925781 39.910156 53.132812 40.242188 53.132812 C 40.324219 53.132812 40.449219 53.132812 40.53125 53.089844 C 40.949219 52.925781 41.195312 52.46875 41.03125 52.011719 C 40.699219 51.097656 40.242188 50.519531 39.621094 50.269531 C 39.410156 50.1875 39.164062 50.144531 38.957031 50.105469 C 38.832031 50.0625 38.664062 50.019531 38.625 50.019531 C 38.539062 49.9375 38.5 49.855469 38.457031 49.8125 C 38.375 49.6875 38.332031 49.648438 38.332031 49.523438 C 38.25 49.273438 38.207031 48.859375 38.292969 48.527344 C 38.332031 48.320312 38.414062 48.238281 38.414062 48.195312 L 44.476562 48.320312 C 45.597656 48.320312 46.632812 48.070312 47.464844 47.820312 L 47.503906 47.820312 C 47.671875 47.78125 47.878906 47.699219 48.085938 47.613281 C 48.625 47.367188 49.082031 46.992188 49.457031 46.496094 C 49.539062 46.371094 49.746094 46.328125 49.914062 46.371094 C 49.953125 46.371094 49.996094 46.410156 50.035156 46.410156 C 50.285156 46.496094 50.410156 46.660156 50.492188 46.785156 C 50.578125 46.910156 50.699219 47.28125 50.824219 47.613281 C 50.785156 47.738281 50.699219 47.820312 50.660156 47.863281 C 50.492188 47.988281 50.328125 48.03125 50.160156 48.03125 L 48.75 47.988281 C 48.585938 47.988281 48.460938 48.03125 48.335938 48.070312 C 47.589844 48.484375 47.296875 49.398438 47.710938 50.144531 L 48.5 51.679688 C 48.707031 52.09375 49.207031 52.261719 49.621094 52.054688 C 50.035156 51.847656 50.203125 51.347656 49.996094 50.933594 L 49.332031 49.6875 L 50.121094 49.730469 C 50.742188 49.730469 51.324219 49.523438 51.78125 49.148438 C 52.277344 48.734375 52.527344 48.113281 52.527344 47.53125 C 52.527344 47.449219 52.527344 47.367188 52.484375 47.28125 C 52.070312 46.078125 51.945312 45.914062 51.863281 45.832031 C 51.695312 45.621094 51.363281 45.207031 50.742188 44.960938 C 50.660156 44.917969 50.578125 44.875 50.492188 44.875 C 49.664062 44.628906 48.75 44.917969 48.210938 45.582031 C 48.003906 45.871094 47.753906 46.078125 47.421875 46.203125 C 47.296875 46.246094 47.171875 46.285156 47.046875 46.328125 L 47.007812 46.328125 C 46.34375 46.535156 45.429688 46.785156 44.558594 46.742188 L 38.414062 46.617188 C 38.375 46.617188 38.332031 46.617188 38.332031 46.617188 C 37.542969 46.660156 36.964844 47.199219 36.714844 48.070312 Z M 37.417969 43.050781 C 37.542969 43.878906 38.082031 44.460938 38.832031 44.628906 C 39.203125 44.710938 39.535156 44.710938 39.867188 44.75 C 40.035156 44.75 40.199219 44.75 40.324219 44.792969 L 44.269531 45.167969 C 44.722656 45.207031 45.179688 45.082031 45.511719 44.835938 C 45.84375 44.585938 46.050781 44.253906 46.175781 44.003906 L 46.59375 44.960938 C 46.714844 45.289062 47.046875 45.457031 47.339844 45.457031 C 47.464844 45.457031 47.546875 45.414062 47.671875 45.375 C 48.085938 45.207031 48.292969 44.710938 48.128906 44.296875 L 47.339844 42.429688 C 47.296875 42.34375 47.257812 42.261719 47.214844 42.222656 C 46.925781 41.890625 46.46875 41.679688 46.050781 41.722656 C 45.636719 41.765625 45.265625 41.929688 45.054688 42.304688 C 44.847656 42.636719 44.808594 42.882812 44.808594 43.050781 C 44.808594 43.132812 44.808594 43.175781 44.765625 43.257812 C 44.722656 43.382812 44.683594 43.507812 44.601562 43.546875 C 44.558594 43.589844 44.515625 43.589844 44.433594 43.546875 L 40.492188 43.175781 C 40.324219 43.175781 40.117188 43.132812 39.953125 43.132812 C 39.660156 43.132812 39.410156 43.09375 39.164062 43.050781 C 39.121094 43.050781 39.078125 43.050781 39.039062 42.84375 C 38.996094 42.511719 39.039062 42.097656 39.164062 41.804688 C 39.203125 41.722656 39.289062 41.597656 39.328125 41.515625 C 39.453125 41.308594 39.621094 41.058594 39.703125 40.769531 C 39.703125 40.726562 39.742188 40.644531 39.742188 40.601562 C 39.828125 40.6875 39.910156 40.933594 39.953125 41.390625 C 39.992188 41.804688 40.367188 42.136719 40.78125 42.136719 C 40.824219 42.136719 40.824219 42.136719 40.863281 42.136719 C 41.320312 42.097656 41.652344 41.679688 41.613281 41.226562 C 41.527344 40.269531 41.238281 39.605469 40.699219 39.234375 C 40.53125 39.109375 40.324219 38.984375 40.117188 38.902344 C 40.035156 38.859375 39.867188 38.777344 39.828125 38.777344 C 39.785156 38.695312 39.742188 38.609375 39.703125 38.527344 C 39.660156 38.402344 39.660156 38.320312 39.621094 38.195312 C 39.578125 37.738281 39.867188 37.117188 40.074219 36.992188 L 45.511719 38.609375 C 46.507812 38.902344 47.503906 38.941406 48.375 38.902344 C 48.542969 38.902344 48.75 38.902344 48.957031 38.859375 C 49.539062 38.777344 50.035156 38.570312 50.535156 38.28125 C 50.660156 38.195312 50.824219 38.195312 50.992188 38.28125 C 51.03125 38.28125 51.03125 38.320312 51.074219 38.363281 C 51.242188 38.488281 51.324219 38.652344 51.363281 38.777344 C 51.363281 38.820312 51.40625 38.941406 51.40625 39.234375 C 51.40625 39.359375 51.449219 39.484375 51.449219 39.566406 C 51.40625 39.605469 51.40625 39.605469 51.363281 39.605469 C 51.242188 39.691406 51.03125 39.730469 50.785156 39.648438 L 49.539062 39.273438 C 49.414062 39.234375 49.25 39.234375 49.125 39.273438 C 48.75 39.359375 48.417969 39.566406 48.167969 39.898438 C 47.960938 40.230469 47.878906 40.644531 48.003906 41.058594 L 48.417969 42.59375 C 48.542969 43.050781 49 43.300781 49.414062 43.175781 C 49.871094 43.050781 50.121094 42.59375 49.996094 42.179688 L 49.703125 41.058594 L 50.328125 41.265625 C 50.992188 41.472656 51.65625 41.390625 52.238281 41.058594 C 52.691406 40.769531 53.023438 40.355469 53.109375 39.855469 C 53.109375 39.773438 53.148438 39.648438 53.109375 39.566406 C 53.109375 39.566406 53.066406 39.316406 53.066406 39.109375 C 53.023438 38.527344 52.984375 38.363281 52.941406 38.195312 C 52.859375 37.988281 52.652344 37.53125 52.152344 37.117188 C 52.070312 37.074219 51.988281 36.992188 51.945312 36.953125 C 51.242188 36.496094 50.367188 36.496094 49.664062 36.953125 C 49.371094 37.117188 49.082031 37.242188 48.75 37.285156 C 48.625 37.285156 48.5 37.285156 48.335938 37.324219 C 47.628906 37.324219 46.757812 37.324219 46.011719 37.074219 L 40.40625 35.417969 C 40.367188 35.417969 40.367188 35.417969 40.324219 35.375 C 39.867188 35.292969 39.371094 35.457031 38.957031 35.789062 C 38.332031 36.371094 37.875 37.449219 37.960938 38.363281 C 37.960938 38.363281 37.960938 38.402344 37.960938 38.402344 C 37.960938 38.488281 37.960938 38.609375 38 38.695312 C 38 38.777344 38.042969 38.902344 38.082031 39.027344 C 38.082031 39.027344 38.082031 39.066406 38.082031 39.066406 C 38.125 39.191406 38.125 39.316406 38.167969 39.484375 C 38.167969 39.648438 38.167969 39.9375 38.042969 40.269531 C 38 40.394531 37.917969 40.519531 37.835938 40.6875 C 37.75 40.808594 37.667969 40.976562 37.585938 41.140625 C 37.417969 41.597656 37.335938 42.386719 37.417969 43.050781 Z M 45.222656 25.832031 C 44.765625 25.625 44.269531 25.667969 43.8125 25.914062 C 43.0625 26.332031 42.609375 27.160156 42.484375 27.78125 C 42.441406 27.867188 42.441406 27.988281 42.441406 28.074219 C 42.441406 28.15625 42.441406 28.238281 42.441406 28.363281 C 42.441406 28.363281 42.441406 28.40625 42.441406 28.40625 C 42.441406 28.53125 42.441406 28.613281 42.398438 28.738281 C 42.359375 28.859375 42.316406 29.070312 42.152344 29.316406 C 42.066406 29.402344 41.984375 29.484375 41.859375 29.609375 C 41.734375 29.691406 41.613281 29.816406 41.527344 29.941406 C 41.113281 30.355469 40.78125 31.058594 40.699219 31.683594 C 40.574219 32.472656 40.90625 33.175781 41.570312 33.550781 C 41.859375 33.714844 42.191406 33.839844 42.484375 33.921875 C 42.609375 33.964844 42.773438 34.007812 42.898438 34.089844 L 46.382812 35.539062 C 46.800781 35.707031 47.257812 35.75 47.628906 35.625 C 48.003906 35.5 48.253906 35.292969 48.417969 35.125 L 48.5 35.957031 C 48.542969 36.371094 48.917969 36.703125 49.332031 36.703125 C 49.371094 36.703125 49.371094 36.703125 49.414062 36.703125 C 49.871094 36.660156 50.203125 36.246094 50.160156 35.789062 L 49.996094 33.882812 C 49.996094 33.796875 49.953125 33.714844 49.953125 33.632812 C 49.789062 33.21875 49.457031 32.925781 49 32.800781 C 48.625 32.71875 48.210938 32.800781 47.878906 33.050781 C 47.589844 33.300781 47.464844 33.507812 47.421875 33.675781 C 47.378906 33.757812 47.378906 33.757812 47.339844 33.839844 C 47.296875 33.921875 47.171875 34.046875 47.132812 34.046875 C 47.132812 34.046875 47.046875 34.046875 47.007812 34.046875 L 43.519531 32.59375 C 43.355469 32.511719 43.1875 32.472656 43.023438 32.429688 C 42.773438 32.347656 42.523438 32.261719 42.359375 32.140625 C 42.359375 32.140625 42.316406 32.097656 42.316406 31.972656 C 42.359375 31.683594 42.523438 31.308594 42.730469 31.144531 C 42.816406 31.058594 42.898438 30.976562 42.980469 30.9375 C 43.148438 30.769531 43.355469 30.605469 43.519531 30.394531 C 43.519531 30.394531 43.519531 30.394531 43.519531 30.355469 C 43.5625 30.480469 43.5625 30.644531 43.519531 31.019531 C 43.4375 31.476562 43.726562 31.890625 44.183594 31.972656 C 44.226562 31.972656 44.269531 31.972656 44.308594 31.972656 C 44.722656 31.972656 45.054688 31.683594 45.140625 31.269531 C 45.304688 30.394531 45.179688 29.734375 44.808594 29.234375 C 44.683594 29.070312 44.515625 28.902344 44.390625 28.777344 C 44.308594 28.695312 44.226562 28.613281 44.183594 28.570312 C 44.183594 28.488281 44.144531 28.445312 44.144531 28.363281 C 44.144531 28.28125 44.144531 28.199219 44.144531 28.113281 C 44.183594 27.824219 44.476562 27.492188 44.601562 27.410156 L 49.332031 30.023438 C 50.078125 30.4375 50.910156 30.6875 51.988281 30.851562 C 52.152344 30.894531 52.359375 30.894531 52.609375 30.894531 C 53.191406 30.894531 53.730469 30.726562 54.269531 30.4375 C 54.394531 30.355469 54.5625 30.355469 54.601562 30.4375 C 54.601562 30.4375 54.644531 30.480469 54.644531 30.480469 C 54.769531 30.605469 54.769531 30.769531 54.808594 30.9375 C 54.808594 31.101562 54.726562 31.558594 54.644531 31.929688 C 54.5625 32.015625 54.476562 32.097656 54.351562 32.140625 C 54.230469 32.179688 54.105469 32.140625 53.980469 32.097656 L 52.902344 31.433594 C 52.777344 31.351562 52.609375 31.308594 52.445312 31.308594 C 51.65625 31.308594 50.992188 31.972656 50.949219 32.761719 L 50.867188 34.335938 C 50.824219 34.792969 51.199219 35.167969 51.65625 35.210938 C 52.113281 35.210938 52.484375 34.878906 52.527344 34.421875 L 52.570312 33.175781 L 53.109375 33.507812 C 53.605469 33.796875 54.230469 33.882812 54.808594 33.714844 C 55.390625 33.550781 55.890625 33.132812 56.136719 32.554688 C 56.179688 32.472656 56.179688 32.429688 56.222656 32.347656 C 56.46875 31.019531 56.429688 30.8125 56.429688 30.726562 C 56.386719 30.480469 56.304688 29.898438 55.890625 29.402344 C 55.847656 29.316406 55.765625 29.234375 55.679688 29.191406 C 55.101562 28.613281 54.144531 28.53125 53.398438 28.945312 C 53.148438 29.109375 52.859375 29.191406 52.570312 29.191406 C 52.445312 29.191406 52.359375 29.191406 52.195312 29.152344 C 51.324219 29.027344 50.660156 28.820312 50.121094 28.53125 L 45.304688 25.875 C 45.265625 25.875 45.265625 25.875 45.222656 25.832031 Z M 46.59375 21.558594 C 46.550781 21.601562 46.46875 21.640625 46.425781 21.726562 C 46.34375 21.765625 46.300781 21.808594 46.21875 21.890625 C 46.011719 22.058594 45.804688 22.304688 45.71875 22.554688 C 45.636719 22.722656 45.511719 23.011719 45.472656 23.300781 C 45.386719 23.964844 45.679688 24.546875 46.300781 24.917969 C 46.59375 25.085938 46.839844 25.210938 47.132812 25.335938 C 47.257812 25.375 47.378906 25.460938 47.503906 25.5 L 50.660156 27.117188 C 51.074219 27.324219 51.488281 27.367188 51.863281 27.285156 C 52.152344 27.203125 52.402344 27.035156 52.570312 26.910156 L 52.570312 27.617188 C 52.570312 28.074219 52.941406 28.445312 53.398438 28.445312 C 53.855469 28.445312 54.230469 28.074219 54.230469 27.617188 L 54.230469 26.664062 C 54.230469 26.414062 54.230469 26.164062 54.230469 25.957031 L 54.230469 25.667969 C 54.230469 25.582031 54.1875 25.5 54.1875 25.417969 C 54.019531 25.003906 53.6875 24.710938 53.273438 24.585938 C 52.859375 24.464844 52.484375 24.546875 52.152344 24.796875 C 51.863281 25.003906 51.78125 25.25 51.695312 25.375 C 51.65625 25.460938 51.65625 25.460938 51.613281 25.5 C 51.574219 25.542969 51.488281 25.667969 51.449219 25.667969 C 51.449219 25.667969 51.449219 25.667969 51.40625 25.625 L 48.253906 24.007812 C 48.128906 23.925781 47.960938 23.882812 47.835938 23.800781 C 47.589844 23.675781 47.378906 23.59375 47.214844 23.46875 C 47.171875 23.425781 47.171875 23.425781 47.171875 23.425781 C 47.171875 23.382812 47.214844 23.300781 47.257812 23.175781 C 47.296875 23.136719 47.296875 23.09375 47.339844 23.09375 C 47.378906 23.050781 47.421875 23.011719 47.464844 23.011719 C 47.589844 22.929688 47.796875 22.761719 47.960938 22.554688 C 48.003906 22.597656 48.003906 22.761719 48.003906 22.96875 C 47.960938 23.425781 48.335938 23.839844 48.792969 23.839844 C 48.792969 23.839844 48.832031 23.839844 48.832031 23.839844 C 49.25 23.839844 49.621094 23.507812 49.664062 23.050781 C 49.703125 22.304688 49.496094 21.683594 49.082031 21.269531 C 48.917969 21.144531 48.75 21.019531 48.625 20.894531 C 48.542969 20.855469 48.417969 20.769531 48.375 20.730469 C 48.335938 20.6875 48.335938 20.644531 48.335938 20.605469 C 48.335938 20.5625 48.292969 20.523438 48.292969 20.480469 C 48.292969 20.398438 48.375 20.273438 48.417969 20.230469 L 53.316406 21.765625 C 54.105469 22.015625 54.933594 22.097656 55.972656 22.015625 C 56.136719 22.015625 56.34375 21.972656 56.554688 21.933594 C 57.09375 21.808594 57.589844 21.519531 58.003906 21.0625 C 58.128906 20.9375 58.214844 20.9375 58.253906 20.9375 C 58.253906 20.9375 58.296875 20.9375 58.296875 20.976562 C 58.421875 21.0625 58.460938 21.226562 58.503906 21.351562 C 58.503906 21.519531 58.546875 22.015625 58.546875 22.472656 C 58.503906 22.554688 58.460938 22.636719 58.460938 22.679688 C 58.378906 22.761719 58.335938 22.84375 58.253906 22.886719 C 58.214844 22.929688 58.089844 22.96875 58.003906 22.929688 L 56.925781 22.472656 C 56.761719 22.390625 56.59375 22.390625 56.429688 22.429688 C 55.679688 22.597656 55.183594 23.300781 55.183594 24.046875 L 55.183594 24.339844 C 55.183594 24.503906 55.183594 24.710938 55.183594 24.878906 L 55.140625 25.707031 C 55.101562 26.164062 55.472656 26.539062 55.929688 26.578125 C 56.386719 26.578125 56.761719 26.246094 56.800781 25.789062 L 56.84375 24.917969 C 56.84375 24.710938 56.84375 24.503906 56.84375 24.296875 L 56.84375 24.214844 L 57.382812 24.421875 C 57.964844 24.671875 58.628906 24.628906 59.167969 24.257812 C 59.417969 24.089844 59.625 23.882812 59.875 23.632812 C 60.039062 23.382812 60.164062 23.09375 60.246094 22.761719 C 60.246094 22.679688 60.289062 22.636719 60.289062 22.554688 C 60.289062 21.144531 60.246094 20.9375 60.207031 20.855469 C 60.121094 20.605469 59.957031 20.066406 59.457031 19.609375 C 59.375 19.527344 59.292969 19.484375 59.210938 19.441406 C 58.503906 19.027344 57.589844 19.152344 56.96875 19.816406 C 56.71875 20.066406 56.46875 20.191406 56.222656 20.273438 C 56.136719 20.3125 56.011719 20.3125 55.890625 20.3125 C 55.101562 20.398438 54.476562 20.3125 53.898438 20.148438 L 48.957031 18.570312 C 48.917969 18.570312 48.917969 18.570312 48.875 18.570312 C 48.335938 18.449219 47.835938 18.613281 47.421875 18.945312 C 46.964844 19.320312 46.714844 19.941406 46.714844 20.523438 C 46.714844 20.644531 46.714844 20.730469 46.757812 20.855469 C 46.757812 20.894531 46.800781 20.976562 46.839844 21.101562 C 46.839844 21.144531 46.839844 21.144531 46.839844 21.1875 C 46.675781 21.394531 46.632812 21.476562 46.59375 21.558594 Z M 60.910156 11.144531 C 60.785156 10.9375 60.496094 10.480469 59.914062 10.234375 C 59.832031 10.191406 59.75 10.148438 59.664062 10.148438 C 58.917969 9.902344 58.089844 10.234375 57.632812 10.980469 C 57.464844 11.226562 57.300781 11.394531 57.09375 11.519531 C 57.007812 11.558594 56.925781 11.601562 56.84375 11.601562 C 56.800781 11.601562 56.800781 11.601562 56.761719 11.644531 C 56.179688 11.808594 55.558594 11.933594 54.933594 11.890625 L 50.078125 11.644531 C 50.035156 11.644531 50.035156 11.644531 49.996094 11.644531 C 49.371094 11.683594 48.832031 12.058594 48.585938 12.679688 C 48.375 13.136719 48.335938 13.632812 48.460938 14.050781 C 48.460938 14.175781 48.5 14.257812 48.542969 14.382812 C 48.585938 14.421875 48.625 14.507812 48.667969 14.589844 C 48.707031 14.628906 48.707031 14.628906 48.707031 14.671875 C 48.707031 14.714844 48.707031 14.796875 48.707031 14.878906 C 48.707031 14.921875 48.625 15.046875 48.542969 15.128906 L 48.5 15.210938 C 48.167969 15.625 48.042969 16.207031 48.128906 16.746094 C 48.253906 17.328125 48.667969 17.824219 49.332031 17.992188 C 49.621094 18.074219 49.914062 18.117188 50.203125 18.15625 C 50.328125 18.199219 50.453125 18.199219 50.578125 18.238281 L 53.8125 18.902344 C 54.351562 19.027344 54.769531 18.863281 54.976562 18.738281 C 55.183594 18.613281 55.347656 18.449219 55.472656 18.28125 L 55.640625 18.820312 C 55.722656 19.195312 56.097656 19.441406 56.429688 19.441406 C 56.511719 19.441406 56.59375 19.441406 56.636719 19.402344 C 57.09375 19.277344 57.339844 18.820312 57.21875 18.363281 L 56.71875 16.582031 C 56.675781 16.496094 56.636719 16.414062 56.59375 16.332031 C 56.386719 16.039062 56.054688 15.832031 55.640625 15.792969 C 55.265625 15.75 54.851562 15.917969 54.601562 16.207031 C 54.5625 16.25 54.519531 16.289062 54.476562 16.371094 C 54.351562 16.621094 54.3125 16.789062 54.269531 16.914062 C 54.269531 16.996094 54.230469 17.035156 54.230469 17.078125 C 54.230469 17.121094 54.1875 17.203125 54.144531 17.246094 L 50.910156 16.582031 C 50.785156 16.539062 50.617188 16.539062 50.453125 16.496094 C 50.203125 16.457031 49.996094 16.414062 49.789062 16.371094 C 49.789062 16.371094 49.746094 16.371094 49.746094 16.371094 C 49.746094 16.332031 49.746094 16.25 49.789062 16.207031 L 49.828125 16.164062 C 49.953125 16 50.078125 15.832031 50.203125 15.625 C 50.246094 15.710938 50.285156 15.792969 50.328125 15.917969 C 50.410156 16.289062 50.742188 16.539062 51.117188 16.539062 C 51.199219 16.539062 51.242188 16.539062 51.324219 16.496094 C 51.78125 16.371094 52.027344 15.917969 51.90625 15.5 C 51.738281 14.796875 51.363281 14.296875 50.867188 14.050781 C 50.699219 13.964844 50.492188 13.882812 50.367188 13.84375 C 50.285156 13.800781 50.160156 13.800781 50.121094 13.757812 C 50.078125 13.71875 50.078125 13.71875 50.078125 13.675781 C 50.035156 13.632812 50.035156 13.59375 50.035156 13.59375 C 50.035156 13.550781 50.035156 13.46875 50.078125 13.300781 L 54.808594 13.550781 C 55.640625 13.59375 56.46875 13.46875 57.257812 13.179688 C 57.464844 13.136719 57.632812 13.054688 57.796875 12.972656 C 58.253906 12.722656 58.628906 12.347656 58.960938 11.890625 C 59 11.808594 59.085938 11.769531 59.085938 11.769531 C 59.085938 11.769531 59.125 11.769531 59.125 11.769531 C 59.25 11.808594 59.332031 11.933594 59.375 12.015625 C 59.417969 12.140625 59.542969 12.554688 59.625 12.929688 C 59.625 13.054688 59.582031 13.179688 59.5 13.261719 C 59.417969 13.34375 59.375 13.34375 59.292969 13.34375 L 58.214844 13.179688 C 58.046875 13.136719 57.882812 13.179688 57.714844 13.261719 C 57.050781 13.59375 56.71875 14.382812 56.925781 15.085938 L 57.339844 16.621094 C 57.464844 17.078125 57.921875 17.328125 58.378906 17.203125 C 58.835938 17.078125 59.085938 16.621094 58.960938 16.164062 L 58.628906 14.878906 L 59.085938 14.960938 C 59.664062 15.046875 60.246094 14.835938 60.703125 14.382812 C 61.078125 13.964844 61.285156 13.386719 61.285156 12.804688 C 61.285156 12.722656 61.285156 12.679688 61.242188 12.597656 C 61.078125 11.394531 60.953125 11.226562 60.910156 11.144531 Z M 15.960938 73.378906 C 16.253906 75.992188 19.117188 77.113281 21.148438 77.902344 C 21.523438 78.066406 21.898438 78.191406 22.230469 78.359375 C 23.890625 79.0625 26.585938 80.265625 29.160156 80.265625 C 31.070312 80.265625 32.894531 79.644531 34.222656 77.695312 C 34.472656 77.320312 34.390625 76.78125 34.015625 76.53125 C 33.644531 76.285156 33.101562 76.367188 32.855469 76.738281 C 30.65625 79.894531 26.585938 78.441406 22.894531 76.824219 C 22.519531 76.65625 22.144531 76.53125 21.730469 76.367188 C 19.988281 75.660156 17.789062 74.832031 17.582031 73.171875 C 17.414062 71.636719 19.117188 70.226562 20.652344 69.148438 C 24.304688 66.617188 29.949219 64.832031 33.726562 66.824219 C 34.058594 66.988281 34.347656 67.199219 34.640625 67.40625 C 35.136719 67.820312 35.511719 68.316406 35.675781 68.898438 C 35.84375 69.3125 36.300781 69.5625 36.714844 69.394531 C 37.128906 69.230469 37.378906 68.773438 37.210938 68.359375 C 36.921875 67.488281 36.382812 66.742188 35.675781 66.117188 C 35.304688 65.828125 34.929688 65.539062 34.472656 65.332031 C 30.03125 63.007812 23.847656 64.875 19.65625 67.777344 C 18.492188 68.648438 15.628906 70.640625 15.960938 73.378906 Z M 42.730469 87.238281 C 42.773438 87.238281 42.816406 87.238281 42.855469 87.238281 C 43.273438 87.238281 43.605469 86.945312 43.6875 86.53125 C 43.976562 84.664062 44.144531 81.054688 41.945312 77.402344 C 38.914062 72.425781 33.601562 71.304688 32.398438 71.140625 C 29.449219 70.101562 26.753906 70.351562 24.96875 70.722656 C 24.511719 70.808594 24.222656 71.261719 24.347656 71.71875 C 24.429688 72.175781 24.886719 72.464844 25.34375 72.34375 C 26.339844 72.132812 27.667969 71.96875 29.203125 72.09375 C 28.785156 72.425781 28.371094 72.882812 28.082031 73.503906 C 27.875 73.917969 28.039062 74.417969 28.453125 74.625 C 28.871094 74.832031 29.367188 74.664062 29.574219 74.25 C 30.28125 72.757812 31.898438 72.757812 32.148438 72.757812 C 33.1875 72.921875 37.875 73.878906 40.574219 78.273438 C 42.566406 81.550781 42.316406 84.953125 42.109375 86.28125 C 41.984375 86.738281 42.277344 87.152344 42.730469 87.238281 Z M 76.765625 40.023438 C 78.382812 38.527344 80.625 36.496094 79.960938 33.921875 C 79.253906 31.269531 75.851562 30.4375 74.398438 30.105469 C 69.460938 28.945312 63.027344 29.441406 59.707031 33.21875 C 59.375 33.589844 59.085938 34.007812 58.878906 34.378906 C 58.421875 35.210938 58.214844 36.121094 58.253906 37.035156 C 58.253906 37.492188 58.667969 37.824219 59.125 37.824219 C 59.582031 37.824219 59.957031 37.40625 59.914062 36.953125 C 59.875 36.328125 60.039062 35.75 60.371094 35.167969 C 60.539062 34.878906 60.746094 34.585938 60.992188 34.296875 C 63.816406 31.058594 69.75 30.6875 74.027344 31.722656 C 75.851562 32.140625 77.96875 32.84375 78.34375 34.335938 C 78.757812 35.914062 77.015625 37.53125 75.601562 38.777344 C 75.269531 39.066406 74.980469 39.359375 74.691406 39.648438 C 71.867188 42.46875 68.546875 45.332031 65.351562 43.175781 C 64.976562 42.925781 64.4375 43.007812 64.1875 43.382812 C 63.941406 43.757812 64.023438 44.296875 64.398438 44.542969 C 65.476562 45.289062 66.597656 45.582031 67.632812 45.582031 C 71.039062 45.582031 74.109375 42.511719 75.808594 40.808594 C 76.140625 40.5625 76.433594 40.3125 76.765625 40.023438 Z M 67.632812 39.691406 C 67.964844 40.023438 68.503906 39.980469 68.796875 39.648438 C 69.128906 39.316406 69.085938 38.777344 68.753906 38.488281 C 68.257812 38.03125 67.71875 37.738281 67.21875 37.574219 C 68.589844 36.910156 69.875 36.578125 70.871094 36.414062 C 71.328125 36.328125 71.617188 35.914062 71.578125 35.457031 C 71.492188 35 71.078125 34.710938 70.621094 34.753906 C 68.835938 35.042969 66.222656 35.789062 63.855469 37.824219 C 62.488281 38.609375 58.253906 41.515625 57.21875 47.117188 C 56.46875 51.308594 57.921875 54.625 58.878906 56.246094 C 59.042969 56.492188 59.292969 56.660156 59.582031 56.660156 C 59.707031 56.660156 59.875 56.617188 59.996094 56.535156 C 60.414062 56.285156 60.539062 55.789062 60.289062 55.414062 C 59.625 54.253906 58.128906 51.222656 58.835938 47.40625 C 59.75 42.34375 63.773438 39.773438 64.6875 39.234375 C 64.9375 39.152344 66.429688 38.570312 67.632812 39.691406 Z M 32.105469 57.695312 C 31.816406 57.777344 31.566406 57.988281 31.441406 58.234375 C 31.277344 58.484375 31.277344 58.816406 31.359375 59.105469 C 31.441406 59.398438 31.652344 59.644531 31.898438 59.769531 C 32.066406 59.855469 32.230469 59.894531 32.4375 59.894531 C 32.5625 59.894531 32.648438 59.894531 32.769531 59.855469 C 33.351562 59.6875 33.726562 59.066406 33.519531 58.441406 C 33.351562 57.863281 32.730469 57.53125 32.105469 57.695312 Z M 32.191406 51.515625 C 32.148438 51.222656 32.023438 50.933594 31.816406 50.726562 C 31.566406 50.519531 31.277344 50.4375 30.988281 50.476562 C 30.363281 50.519531 29.90625 51.058594 29.949219 51.679688 C 29.992188 51.972656 30.113281 52.261719 30.363281 52.46875 C 30.570312 52.632812 30.820312 52.71875 31.109375 52.71875 C 31.152344 52.71875 31.195312 52.71875 31.234375 52.71875 C 31.816406 52.675781 32.230469 52.136719 32.191406 51.515625 Z M 30.988281 45.457031 C 31.027344 45.457031 31.070312 45.457031 31.070312 45.457031 C 31.652344 45.457031 32.148438 45.042969 32.191406 44.460938 C 32.273438 43.839844 31.816406 43.300781 31.195312 43.214844 C 30.902344 43.175781 30.613281 43.257812 30.363281 43.464844 C 30.113281 43.671875 29.992188 43.921875 29.949219 44.210938 C 29.90625 44.503906 29.992188 44.792969 30.199219 45.042969 C 30.40625 45.289062 30.695312 45.414062 30.988281 45.457031 Z M 32.9375 36.164062 C 32.648438 36.082031 32.355469 36.082031 32.066406 36.203125 C 31.773438 36.328125 31.609375 36.578125 31.484375 36.867188 C 31.277344 37.449219 31.609375 38.113281 32.230469 38.28125 C 32.355469 38.320312 32.4375 38.320312 32.5625 38.320312 C 33.019531 38.320312 33.476562 38.03125 33.644531 37.53125 C 33.851562 36.992188 33.519531 36.328125 32.9375 36.164062 Z M 36.257812 29.648438 C 36.007812 29.484375 35.675781 29.441406 35.386719 29.523438 C 35.09375 29.609375 34.847656 29.773438 34.679688 30.0625 C 34.515625 30.3125 34.472656 30.644531 34.554688 30.9375 C 34.640625 31.226562 34.804688 31.476562 35.09375 31.640625 C 35.261719 31.722656 35.46875 31.808594 35.675781 31.808594 C 36.050781 31.808594 36.421875 31.597656 36.632812 31.269531 C 36.964844 30.644531 36.796875 29.980469 36.257812 29.648438 Z M 39.328125 23.34375 C 39.078125 23.21875 38.746094 23.175781 38.457031 23.261719 C 38.167969 23.34375 37.917969 23.550781 37.792969 23.800781 C 37.503906 24.339844 37.710938 25.003906 38.25 25.292969 C 38.414062 25.375 38.625 25.417969 38.789062 25.417969 C 38.914062 25.417969 38.996094 25.417969 39.121094 25.375 C 39.410156 25.292969 39.660156 25.085938 39.785156 24.835938 C 40.074219 24.339844 39.867188 23.675781 39.328125 23.34375 Z M 41.859375 16.539062 C 41.28125 16.414062 40.699219 16.746094 40.53125 17.328125 C 40.449219 17.617188 40.492188 17.90625 40.617188 18.199219 C 40.78125 18.449219 40.988281 18.65625 41.320312 18.738281 C 41.402344 18.78125 41.527344 18.78125 41.613281 18.78125 C 42.109375 18.78125 42.566406 18.449219 42.691406 17.949219 C 42.773438 17.660156 42.730469 17.328125 42.566406 17.078125 C 42.441406 16.789062 42.152344 16.621094 41.859375 16.539062 Z M 41.859375 9.277344 C 41.238281 9.277344 40.738281 9.777344 40.738281 10.398438 C 40.738281 10.441406 40.738281 10.441406 40.738281 10.480469 C 40.78125 11.0625 41.28125 11.519531 41.859375 11.519531 C 41.902344 11.519531 41.902344 11.519531 41.945312 11.519531 C 42.234375 11.476562 42.523438 11.351562 42.730469 11.144531 C 42.898438 10.9375 43.023438 10.648438 42.980469 10.355469 C 42.980469 10.066406 42.855469 9.816406 42.648438 9.609375 C 42.441406 9.402344 42.152344 9.277344 41.859375 9.277344 Z M 67.71875 78.855469 C 67.386719 78.855469 67.136719 78.980469 66.929688 79.1875 C 66.722656 79.394531 66.597656 79.6875 66.597656 79.976562 C 66.597656 80.597656 67.09375 81.097656 67.71875 81.097656 C 68.007812 81.097656 68.296875 80.972656 68.503906 80.765625 C 68.714844 80.558594 68.835938 80.265625 68.835938 79.976562 C 68.835938 79.355469 68.339844 78.855469 67.71875 78.855469 Z M 67.21875 73.835938 C 67.507812 73.792969 67.757812 73.585938 67.925781 73.335938 C 68.089844 73.089844 68.132812 72.796875 68.089844 72.507812 C 68.050781 72.21875 67.839844 71.96875 67.59375 71.800781 C 67.34375 71.636719 67.054688 71.59375 66.761719 71.636719 C 66.179688 71.761719 65.765625 72.382812 65.890625 72.964844 C 66.015625 73.503906 66.472656 73.878906 67.011719 73.878906 C 67.054688 73.878906 67.136719 73.878906 67.21875 73.835938 Z M 65.101562 64.789062 C 64.8125 64.667969 64.480469 64.707031 64.230469 64.832031 C 63.691406 65.082031 63.441406 65.746094 63.691406 66.324219 C 63.816406 66.617188 64.023438 66.824219 64.3125 66.90625 C 64.4375 66.949219 64.5625 66.988281 64.6875 66.988281 C 64.851562 66.988281 65.019531 66.949219 65.183594 66.867188 C 65.726562 66.617188 65.972656 65.953125 65.726562 65.371094 C 65.601562 65.121094 65.351562 64.875 65.101562 64.789062 Z M 60.785156 58.527344 C 60.539062 58.691406 60.328125 58.941406 60.289062 59.230469 C 60.207031 59.523438 60.246094 59.8125 60.414062 60.0625 C 60.578125 60.308594 60.828125 60.519531 61.117188 60.558594 C 61.203125 60.601562 61.285156 60.601562 61.410156 60.601562 C 61.617188 60.601562 61.824219 60.558594 61.988281 60.433594 C 62.238281 60.269531 62.445312 60.019531 62.488281 59.730469 C 62.570312 59.4375 62.527344 59.148438 62.363281 58.859375 C 62.03125 58.402344 61.324219 58.234375 60.785156 58.527344 Z M 60.785156 58.527344 " fill-opacity="1" fill-rule="nonzero"/></g></svg>