<svg xmlns="http://www.w3.org/2000/svg" xmlns:xlink="http://www.w3.org/1999/xlink" width="129" zoomAndPan="magnify" viewBox="0 0 96.75 95.999999" height="128" preserveAspectRatio="xMidYMid meet" version="1.0"><defs><clipPath id="86d1a11bcf"><path d="M 0.507812 0.433594 L 96.167969 0.433594 L 96.167969 95.875 L 0.507812 95.875 Z M 0.507812 0.433594 " clip-rule="nonzero"/></clipPath><clipPath id="9b4da48153"><path d="M 48.339844 0.433594 C 21.921875 0.433594 0.507812 21.851562 0.507812 48.265625 C 0.507812 74.683594 21.921875 96.097656 48.339844 96.097656 C 74.753906 96.097656 96.167969 74.683594 96.167969 48.265625 C 96.167969 21.851562 74.753906 0.433594 48.339844 0.433594 Z M 48.339844 0.433594 " clip-rule="nonzero"/></clipPath><clipPath id="8e825220f3"><path d="M 26 16.886719 L 56 16.886719 L 56 82.886719 L 26 82.886719 Z M 26 16.886719 " clip-rule="nonzero"/></clipPath><clipPath id="ef7974c3db"><path d="M 43 16.886719 L 71.371094 16.886719 L 71.371094 82 L 43 82 Z M 43 16.886719 " clip-rule="nonzero"/></clipPath></defs><g clip-path="url(#86d1a11bcf)"><g clip-path="url(#9b4da48153)"><path fill="#27963c" d="M 0.507812 0.433594 L 96.167969 0.433594 L 96.167969 96.097656 L 0.507812 96.097656 Z M 0.507812 0.433594 " fill-opacity="1" fill-rule="nonzero"/></g></g><g clip-path="url(#8e825220f3)"><path fill="#ffffff" d="M 55.144531 78.863281 C 55.09375 77.792969 54.835938 76.621094 52.308594 75.859375 C 50.402344 75.195312 48.238281 74.484375 47.878906 74.28125 C 47.878906 74.28125 40.507812 69.746094 40.457031 69.746094 C 39.992188 69.441406 39.941406 69.238281 39.941406 69.1875 C 40.148438 66.640625 40.300781 65.675781 40.40625 64.65625 C 40.558594 63.585938 40.714844 62.566406 40.921875 59.917969 C 40.972656 59.054688 41.023438 58.1875 41.074219 57.320312 C 41.125 55.691406 41.230469 54.011719 41.488281 52.382812 C 41.898438 49.785156 42.828125 47.441406 43.804688 44.945312 L 44.0625 44.335938 C 45.351562 41.179688 45.402344 37.5625 44.320312 33.691406 C 43.804688 31.960938 43.652344 25.1875 43.652344 23.660156 L 43.652344 17.90625 C 43.652344 17.34375 43.1875 16.886719 42.621094 16.886719 C 42.054688 16.886719 41.589844 17.34375 41.589844 17.90625 L 41.589844 23.609375 C 41.589844 24.679688 41.691406 32.011719 42.3125 34.203125 C 43.292969 37.664062 43.238281 40.820312 42.105469 43.570312 L 41.949219 44.183594 C 40.921875 46.78125 39.941406 49.226562 39.476562 52.078125 C 39.21875 53.808594 39.117188 55.539062 39.066406 57.269531 C 39.011719 58.085938 38.960938 58.953125 38.910156 59.816406 C 38.703125 62.414062 38.601562 63.433594 38.445312 64.453125 C 38.292969 65.46875 38.136719 66.488281 37.929688 69.085938 C 37.878906 69.746094 38.085938 70.664062 39.375 71.53125 C 39.375 71.53125 46.898438 76.164062 46.898438 76.164062 C 47.363281 76.417969 50.09375 77.335938 51.691406 77.894531 C 53.03125 78.304688 53.03125 78.558594 53.082031 79.015625 C 53.082031 79.117188 53.082031 79.269531 53.082031 79.371094 C 53.03125 79.371094 52.980469 79.425781 52.878906 79.425781 C 50.09375 80.1875 47.773438 80.289062 46.796875 79.78125 C 46.230469 79.476562 45.402344 79.066406 44.425781 78.914062 C 42.828125 78.660156 40.609375 78.40625 38.910156 78.507812 C 38.238281 78.558594 37.519531 78.710938 36.796875 78.964844 C 35.25 79.578125 32.105469 80.339844 30.457031 79.117188 C 29.375 78.355469 28.964844 76.777344 29.167969 74.535156 C 29.375 73.464844 31.28125 67.152344 31.386719 66.640625 C 31.953125 64.605469 32.003906 64.351562 31.488281 60.9375 C 31.4375 60.429688 31.28125 59.765625 31.128906 58.902344 C 30.148438 53.351562 27.828125 40.3125 30.25 27.582031 C 30.355469 27.019531 29.992188 26.511719 29.425781 26.410156 C 28.859375 26.308594 28.292969 26.664062 28.191406 27.226562 C 25.664062 40.3125 28.085938 53.605469 29.066406 59.257812 C 29.21875 60.070312 29.324219 60.734375 29.425781 61.242188 C 29.890625 64.300781 29.890625 64.351562 29.375 66.132812 C 29.21875 66.640625 27.3125 73.007812 27.109375 74.230469 C 26.695312 76.46875 27.261719 79.371094 29.21875 80.800781 C 32.105469 82.886719 36.695312 81.257812 37.570312 80.902344 C 38.085938 80.695312 38.550781 80.59375 39.011719 80.59375 C 40.609375 80.542969 42.878906 80.800781 44.117188 81.003906 C 44.578125 81.054688 45.09375 81.257812 45.765625 81.613281 C 46.539062 82.019531 47.515625 82.175781 48.601562 82.175781 C 50.199219 82.175781 51.949219 81.816406 53.394531 81.410156 C 54.835938 81.003906 55.144531 80.085938 55.144531 79.425781 C 55.195312 79.167969 55.144531 79.015625 55.144531 78.863281 Z M 55.144531 78.863281 " fill-opacity="1" fill-rule="nonzero"/></g><path fill="#ffffff" d="M 64.578125 57.117188 C 64.835938 57.117188 65.039062 57.066406 65.246094 56.914062 C 68.546875 54.316406 70.554688 50.394531 70.8125 46.117188 C 71.019531 42.757812 70.089844 39.496094 68.234375 36.746094 C 68.492188 36.644531 68.699219 36.492188 68.804688 36.238281 C 69.0625 35.730469 68.804688 35.117188 68.289062 34.863281 L 65.96875 33.792969 C 65.609375 33.640625 65.246094 33.691406 64.9375 33.894531 C 64.628906 34.101562 64.472656 34.457031 64.523438 34.8125 C 64.523438 34.8125 64.78125 37.359375 64.78125 37.359375 C 64.835938 37.917969 65.351562 38.328125 65.917969 38.277344 C 66.175781 38.277344 66.433594 38.121094 66.585938 37.917969 C 68.132812 40.261719 68.90625 43.0625 68.75 45.964844 C 68.546875 49.683594 66.792969 53.09375 63.957031 55.285156 C 63.183594 55.894531 63.597656 57.117188 64.578125 57.117188 Z M 64.578125 57.117188 " fill-opacity="1" fill-rule="nonzero"/><g clip-path="url(#ef7974c3db)"><path fill="#ffffff" d="M 71.277344 78.40625 C 71.226562 77.335938 71.019531 76.164062 68.441406 75.402344 C 66.484375 74.738281 64.269531 73.976562 63.957031 73.820312 L 55.96875 69.289062 C 55.507812 68.984375 55.453125 68.78125 55.453125 68.730469 C 55.660156 66.285156 56.074219 62.820312 56.484375 59.664062 C 57.773438 59.511719 58.804688 58.441406 58.804688 57.167969 L 58.804688 54.113281 C 58.804688 53.195312 58.339844 52.433594 57.566406 51.976562 C 57.980469 49.429688 58.960938 47.085938 59.9375 44.640625 L 60.195312 44.03125 C 61.535156 40.820312 61.640625 37.257812 60.503906 33.386719 C 60.144531 32.164062 59.835938 30.941406 59.730469 29.769531 C 60.144531 29.3125 60.402344 28.753906 60.402344 28.089844 L 60.402344 24.015625 C 60.402344 23.203125 59.988281 22.4375 59.371094 21.980469 L 59.371094 17.90625 C 59.371094 17.34375 58.90625 16.886719 58.339844 16.886719 C 57.773438 16.886719 57.308594 17.34375 57.308594 17.90625 L 57.308594 21.46875 L 45.816406 21.46875 L 45.816406 23.507812 L 57.773438 23.507812 C 58.082031 23.507812 58.289062 23.710938 58.289062 24.015625 L 58.289062 28.089844 C 58.289062 28.394531 58.03125 28.601562 57.773438 28.601562 L 45.917969 28.601562 C 45.972656 29.3125 46.023438 30.027344 46.023438 30.636719 L 49.941406 30.636719 L 49.941406 35.882812 C 48.445312 36.339844 47.3125 37.664062 47.3125 39.292969 C 47.3125 40.925781 48.394531 42.246094 49.941406 42.707031 L 49.941406 51.515625 L 45.816406 51.515625 C 45.660156 49.886719 45.558594 48.15625 45.457031 46.425781 C 44.734375 48.207031 44.117188 49.886719 43.703125 51.667969 C 43.703125 51.925781 43.753906 52.128906 43.753906 52.382812 C 43.34375 52.839844 43.136719 53.402344 43.136719 54.011719 L 43.136719 57.066406 C 43.136719 57.984375 43.652344 58.800781 44.375 59.207031 C 44.734375 63.128906 44.992188 66.386719 44.683594 67.507812 C 44.578125 67.914062 44.476562 68.371094 44.375 68.78125 C 44.320312 69.035156 44.21875 69.289062 44.167969 69.59375 L 46.023438 70.714844 C 46.125 70.207031 46.28125 69.746094 46.382812 69.289062 C 46.488281 68.882812 46.589844 68.425781 46.691406 68.015625 C 47.15625 66.691406 46.949219 63.738281 46.589844 59.664062 L 54.421875 59.664062 C 54.011719 62.820312 53.597656 66.132812 53.394531 68.578125 C 53.339844 69.238281 53.546875 70.15625 54.886719 71.019531 C 54.886719 71.019531 54.9375 71.070312 54.9375 71.070312 L 62.980469 75.605469 C 63.441406 75.859375 66.175781 76.777344 67.824219 77.335938 C 69.214844 77.742188 69.214844 77.996094 69.214844 78.457031 C 69.214844 78.761719 69.113281 78.863281 69.007812 78.863281 C 66.175781 79.628906 63.855469 79.730469 62.824219 79.167969 C 62.257812 78.863281 61.433594 78.457031 60.453125 78.304688 C 59.472656 78.152344 58.289062 77.996094 57.105469 77.945312 C 57.15625 78.203125 57.15625 78.507812 57.207031 78.8125 C 57.207031 78.863281 57.207031 78.914062 57.207031 78.964844 C 57.207031 79.117188 57.207031 79.21875 57.207031 79.320312 C 57.207031 79.476562 57.207031 79.730469 57.15625 80.035156 C 58.289062 80.136719 59.421875 80.289062 60.144531 80.390625 C 60.660156 80.441406 61.175781 80.644531 61.792969 81.003906 C 62.566406 81.410156 63.597656 81.613281 64.679688 81.613281 C 66.277344 81.613281 68.03125 81.257812 69.523438 80.902344 C 70.96875 80.542969 71.277344 79.628906 71.277344 78.914062 C 71.328125 78.8125 71.328125 78.507812 71.277344 78.40625 Z M 56.742188 57.117188 C 56.742188 57.425781 56.484375 57.628906 56.226562 57.628906 L 45.816406 57.628906 C 45.507812 57.628906 45.300781 57.425781 45.300781 57.117188 L 45.300781 54.0625 C 45.300781 53.757812 45.558594 53.554688 45.816406 53.554688 L 56.226562 53.554688 C 56.535156 53.554688 56.742188 53.757812 56.742188 54.0625 Z M 58.289062 43.214844 L 58.03125 43.828125 C 57 46.371094 56.019531 48.765625 55.558594 51.515625 L 52.054688 51.515625 L 52.054688 42.707031 C 53.546875 42.246094 54.679688 40.925781 54.679688 39.292969 C 54.679688 37.664062 53.597656 36.339844 52.054688 35.882812 L 52.054688 30.636719 L 57.722656 30.636719 C 57.875 31.757812 58.1875 32.828125 58.496094 33.945312 C 59.472656 37.359375 59.421875 40.515625 58.289062 43.214844 Z M 49.476562 39.292969 C 49.476562 38.429688 50.199219 37.765625 51.023438 37.765625 C 51.898438 37.765625 52.566406 38.429688 52.566406 39.292969 C 52.566406 40.160156 51.847656 40.820312 51.023438 40.820312 C 50.144531 40.820312 49.476562 40.160156 49.476562 39.292969 Z M 49.476562 39.292969 " fill-opacity="1" fill-rule="nonzero"/></g></svg>